<?xml version="1.0" encoding="UTF-8"?>
<svg version="1.1" xmlns="http://www.w3.org/2000/svg" width="560" height="541">
<path d="M0 0 C11.4462746 3.71277027 22.98265289 7.1120623 34.5234375 10.51708984 C36.0385834 10.96416159 37.55372029 11.41126387 39.06884766 11.85839844 C39.80062225 12.07427612 40.53239685 12.29015381 41.28634644 12.51257324 C46.7850114 14.13818587 52.26802517 15.81143511 57.74560547 17.50683594 C61.59114863 18.69460718 65.4463593 19.84866262 69.30322266 20.99902344 C75.45274976 22.83697873 81.59752332 24.68964015 87.73681641 26.56152344 C102.1076605 30.94083219 116.49568354 35.2476947 130.92227173 39.44009399 C148.0742258 44.42470296 165.16081033 49.59393862 182.20922852 54.92211914 C190.52311576 57.51903767 198.84522372 60.07061175 207.2066803 62.5103302 C215.49107695 64.93090194 223.73971225 67.46745357 231.99072266 69.99902344 C235.0934598 70.94996056 238.19636424 71.9003507 241.29931641 72.85058594 C242.03267715 73.07530075 242.7660379 73.30001556 243.5216217 73.53153992 C247.40093935 74.71923323 251.28291864 75.89687945 255.17041016 77.05761719 C274.80772568 82.93186689 274.80772568 82.93186689 281.55322266 87.37402344 C281.55322266 88.03402344 281.55322266 88.69402344 281.55322266 89.37402344 C282.54322266 89.70402344 283.53322266 90.03402344 284.55322266 90.37402344 C285.90478516 92.22949219 285.90478516 92.22949219 287.17822266 94.56152344 C287.60361328 95.31820312 288.02900391 96.07488281 288.46728516 96.85449219 C291.71916529 104.39932199 291.61270905 114.20671028 289.61572266 122.06152344 C282.02886782 134.24647211 271.97788564 140.86717229 258.55322266 145.37402344 C257.23322266 145.37402344 255.91322266 145.37402344 254.55322266 145.37402344 C254.55322266 146.03402344 254.55322266 146.69402344 254.55322266 147.37402344 C253.4878125 147.6640625 253.4878125 147.6640625 252.40087891 147.95996094 C251.48177734 148.22035156 250.56267578 148.48074219 249.61572266 148.74902344 C248.69919922 149.00425781 247.78267578 149.25949219 246.83837891 149.52246094 C244.38577178 150.14062448 244.38577178 150.14062448 243.55322266 152.37402344 C242.89322266 152.37402344 242.23322266 152.37402344 241.55322266 152.37402344 C240.89322266 153.03402344 240.23322266 153.69402344 239.55322266 154.37402344 C238.22892301 154.74160925 236.89400261 155.07203337 235.55322266 155.37402344 C234.30282898 155.87610179 233.06431526 156.40862491 231.83837891 156.96777344 C231.15195312 157.27585937 230.46552734 157.58394531 229.75830078 157.90136719 C228.33315339 158.54833474 226.90866966 159.19676624 225.48486328 159.84667969 C221.85215041 161.47408058 218.53238795 162.81335827 214.55322266 163.37402344 C214.55322266 164.03402344 214.55322266 164.69402344 214.55322266 165.37402344 C213.70759766 165.68855469 212.86197266 166.00308594 211.99072266 166.32714844 C205.65480912 168.71751582 199.54063053 171.21702656 193.55322266 174.37402344 C192.41884766 174.91027344 191.28447266 175.44652344 190.11572266 175.99902344 C187.44159041 177.11671861 187.44159041 177.11671861 186.55322266 179.37402344 C187.21322266 179.37402344 187.87322266 179.37402344 188.55322266 179.37402344 C188.55322266 180.03402344 188.55322266 180.69402344 188.55322266 181.37402344 C189.14707764 181.64714355 189.74093262 181.92026367 190.3527832 182.20166016 C192.48555854 183.33797294 193.9960869 184.49560992 195.76025391 186.13183594 C196.34299072 186.67066406 196.92572754 187.20949219 197.52612305 187.76464844 C198.13319092 188.33699219 198.74025879 188.90933594 199.36572266 189.49902344 C200.31209595 190.38460937 200.31209595 190.38460937 201.27758789 191.28808594 C204.9512233 194.75950725 208.39732381 198.29947976 211.62353516 202.19433594 C214.9772791 205.98257302 218.64842213 209.4710445 222.2878418 212.98339844 C223.74584059 214.41087552 225.15417721 215.88872106 226.55322266 217.37402344 C226.55322266 218.03402344 226.55322266 218.69402344 226.55322266 219.37402344 C227.38853516 219.71433594 227.38853516 219.71433594 228.24072266 220.06152344 C232.23761152 222.33002793 235.09288914 224.9930229 236.55322266 229.37402344 C237.54322266 229.70402344 238.53322266 230.03402344 239.55322266 230.37402344 C241.20166016 232.08105469 241.20166016 232.08105469 242.92822266 234.18652344 C245.5804998 237.3343428 248.31562536 239.8231892 251.55322266 242.37402344 C251.55322266 243.03402344 251.55322266 243.69402344 251.55322266 244.37402344 C252.14748047 244.62925781 252.74173828 244.88449219 253.35400391 245.14746094 C255.78128294 246.50121869 257.00301449 247.84512344 258.74072266 249.99902344 C262.10716093 254.00947599 265.82258942 257.35102196 269.83056641 260.70996094 C270.68328125 261.53367187 270.68328125 261.53367187 271.55322266 262.37402344 C271.55322266 263.03402344 271.55322266 263.69402344 271.55322266 264.37402344 C272.12556641 264.64214844 272.69791016 264.91027344 273.28759766 265.18652344 C275.632069 266.4153498 277.67727203 267.7992452 279.80322266 269.37402344 C280.86283203 270.14746094 280.86283203 270.14746094 281.94384766 270.93652344 C282.47494141 271.41089844 283.00603516 271.88527344 283.55322266 272.37402344 C283.55322266 273.03402344 283.55322266 273.69402344 283.55322266 274.37402344 C284.21322266 274.37402344 284.87322266 274.37402344 285.55322266 274.37402344 C286.59081369 276.69625098 287.58701379 279.02189507 288.55322266 281.37402344 C288.82779297 282.02628906 289.10236328 282.67855469 289.38525391 283.35058594 C291.99373219 290.2122973 292.26752492 297.09305998 292.55322266 304.37402344 C292.6325 305.48970703 292.6325 305.48970703 292.71337891 306.62792969 C293.00793868 312.76245714 291.190366 318.52708292 289.55322266 324.37402344 C288.89322266 324.37402344 288.23322266 324.37402344 287.55322266 324.37402344 C287.55322266 325.69402344 287.55322266 327.01402344 287.55322266 328.37402344 C286.89322266 328.37402344 286.23322266 328.37402344 285.55322266 328.37402344 C285.32634766 329.28152344 285.09947266 330.18902344 284.86572266 331.12402344 C283.36132528 334.8491979 281.88487493 336.20844946 278.55322266 338.37402344 C277.89322266 338.37402344 277.23322266 338.37402344 276.55322266 338.37402344 C276.55322266 339.03402344 276.55322266 339.69402344 276.55322266 340.37402344 C275.89322266 340.37402344 275.23322266 340.37402344 274.55322266 340.37402344 C274.55322266 341.03402344 274.55322266 341.69402344 274.55322266 342.37402344 C272.13916016 344.03027344 272.13916016 344.03027344 268.92822266 345.87402344 C267.88408203 346.48246094 266.83994141 347.09089844 265.76416016 347.71777344 C255.00012832 353.27002343 241.26836287 354.36920086 229.67822266 350.87402344 C228.29610156 350.39405856 226.91765137 349.90218939 225.55322266 349.37402344 C225.55322266 348.71402344 225.55322266 348.05402344 225.55322266 347.37402344 C224.23322266 347.37402344 222.91322266 347.37402344 221.55322266 347.37402344 C221.55322266 346.71402344 221.55322266 346.05402344 221.55322266 345.37402344 C220.23322266 345.37402344 218.91322266 345.37402344 217.55322266 345.37402344 C217.55322266 344.71402344 217.55322266 344.05402344 217.55322266 343.37402344 C216.89322266 343.37402344 216.23322266 343.37402344 215.55322266 343.37402344 C215.55322266 342.71402344 215.55322266 342.05402344 215.55322266 341.37402344 C215.02245117 341.16922363 214.49167969 340.96442383 213.94482422 340.75341797 C210.55069764 338.79580107 208.01223569 336.07707446 205.28759766 333.30371094 C204.66921021 332.68240295 204.05082275 332.06109497 203.41369629 331.42095947 C202.07357667 330.07323734 200.73577238 328.72320986 199.40002441 327.37115479 C197.28620507 325.23180027 195.16619313 323.09876314 193.04443359 320.96728516 C187.77672359 315.67283663 182.51992092 310.3675997 177.26269531 305.06274414 C172.81853834 300.57915323 168.3703323 296.09965526 163.91662598 291.62554932 C161.82750093 289.52345246 159.74448812 287.41542405 157.66162109 285.30712891 C156.38099334 284.01923613 155.10008397 282.7316233 153.81884766 281.44433594 C152.95217468 280.562164 152.95217468 280.562164 152.06799316 279.66217041 C149.42304743 277.01653182 147.08102307 274.73523604 143.55322266 273.37402344 C143.55322266 272.71402344 143.55322266 272.05402344 143.55322266 271.37402344 C142.89322266 271.37402344 142.23322266 271.37402344 141.55322266 271.37402344 C141.55322266 270.71402344 141.55322266 270.05402344 141.55322266 269.37402344 C140.89322266 269.37402344 140.23322266 269.37402344 139.55322266 269.37402344 C139.55322266 268.71402344 139.55322266 268.05402344 139.55322266 267.37402344 C138.89322266 267.37402344 138.23322266 267.37402344 137.55322266 267.37402344 C137.55322266 266.71402344 137.55322266 266.05402344 137.55322266 265.37402344 C136.89322266 265.37402344 136.23322266 265.37402344 135.55322266 265.37402344 C135.55322266 264.71402344 135.55322266 264.05402344 135.55322266 263.37402344 C134.89322266 263.37402344 134.23322266 263.37402344 133.55322266 263.37402344 C133.55322266 262.71402344 133.55322266 262.05402344 133.55322266 261.37402344 C132.89322266 261.37402344 132.23322266 261.37402344 131.55322266 261.37402344 C129.93212891 259.72949219 129.93212891 259.72949219 128.11572266 257.56152344 C126.00795029 255.0622426 123.89834156 252.65289604 121.55322266 250.37402344 C120.55322266 249.37402344 119.55322266 248.37402344 118.55322266 247.37402344 C115.72941034 248.7859296 115.57534271 250.38757058 114.42822266 253.31152344 C109.70680806 264.99667639 104.58746268 276.47922879 98.85791016 287.70605469 C97.21572729 291.06417114 95.84322945 294.49288095 94.49072266 297.97558594 C93.51103058 300.48196483 92.4892206 302.96346205 91.42822266 305.43652344 C91.11626953 306.17 90.80431641 306.90347656 90.48291016 307.65917969 C89.55322266 309.37402344 89.55322266 309.37402344 87.55322266 310.37402344 C87.21235133 312.03916476 86.88082668 313.70622114 86.55322266 315.37402344 C85.62414554 317.56263659 84.64077391 319.7286839 83.61572266 321.87402344 C81.46683267 326.35365621 81.46683267 326.35365621 79.63134766 330.96386719 C78.28073771 333.98316551 76.47639552 336.00546404 74.24072266 338.43652344 C73.48146484 339.273125 72.72220703 340.10972656 71.93994141 340.97167969 C64.6611095 348.29816352 57.73063614 350.22883922 47.55322266 350.37402344 C41.31514161 349.77781746 36.59107502 346.93711988 31.55322266 343.37402344 C30.58384766 342.69339844 29.61447266 342.01277344 28.61572266 341.31152344 C26.40673075 339.23640983 26.05285616 338.27189776 25.55322266 335.37402344 C24.89322266 335.04402344 24.23322266 334.71402344 23.55322266 334.37402344 C23.55322266 333.38402344 23.55322266 332.39402344 23.55322266 331.37402344 C22.89322266 331.04402344 22.23322266 330.71402344 21.55322266 330.37402344 C20.72900391 328.05761719 20.72900391 328.05761719 19.86572266 324.81152344 C19.52283203 323.55855469 19.17994141 322.30558594 18.82666016 321.01464844 C18.63040039 320.29341797 18.43414062 319.5721875 18.23193359 318.82910156 C16.86721498 313.89255108 15.42375022 308.97858277 13.99072266 304.06152344 C13.69786377 303.04823975 13.40500488 302.03495605 13.10327148 300.9909668 C11.56849071 295.71199556 9.9603263 290.49270147 8.08862305 285.32250977 C7.55322266 283.37402344 7.55322266 283.37402344 7.55322266 279.37402344 C6.89322266 279.04402344 6.23322266 278.71402344 5.55322266 278.37402344 C4.73681641 275.64355469 4.73681641 275.64355469 3.99072266 272.18652344 C3.74193359 271.05859375 3.49314453 269.93066406 3.23681641 268.76855469 C2.60774436 265.64476264 2.05456945 262.52057141 1.55322266 259.37402344 C0.89322266 259.37402344 0.23322266 259.37402344 -0.44677734 259.37402344 C-0.57205811 258.81642334 -0.69733887 258.25882324 -0.82641602 257.68432617 C-3.17719297 247.3057259 -5.68538924 237.15974688 -9.19677734 227.10839844 C-10.84744288 222.17703514 -12.20378648 217.18426023 -13.56079102 212.16577148 C-15.17942626 206.22009153 -16.98135856 200.34734429 -18.92333984 194.49926758 C-19.98386279 191.22832401 -20.44677734 188.86822437 -20.44677734 185.37402344 C-21.10677734 185.04402344 -21.76677734 184.71402344 -22.44677734 184.37402344 C-22.44677734 182.72402344 -22.44677734 181.07402344 -22.44677734 179.37402344 C-23.10677734 179.04402344 -23.76677734 178.71402344 -24.44677734 178.37402344 C-25.12939453 176.43481445 -25.12939453 176.43481445 -25.74365234 173.87792969 C-25.97745605 172.93473877 -26.21125977 171.99154785 -26.45214844 171.01977539 C-26.69787598 170.00230225 -26.94360352 168.9848291 -27.19677734 167.93652344 C-29.30882823 159.46385343 -31.67790446 151.18344885 -34.61767578 142.96020508 C-35.82867744 139.5202289 -36.44677734 137.07342791 -36.44677734 133.37402344 C-37.10677734 133.04402344 -37.76677734 132.71402344 -38.44677734 132.37402344 C-39.76423591 128.49483987 -40.44677734 125.49026479 -40.44677734 121.37402344 C-41.10677734 121.04402344 -41.76677734 120.71402344 -42.44677734 120.37402344 C-43.19618687 117.37638535 -43.83799461 114.40102647 -44.44677734 111.37402344 C-46.07003954 103.88488196 -47.84794465 96.58651416 -50.44677734 89.37402344 C-51.79708463 85.6073768 -52.44677734 83.42079609 -52.44677734 79.37402344 C-53.10677734 79.04402344 -53.76677734 78.71402344 -54.44677734 78.37402344 C-55.30687591 75.52211765 -56.05909567 72.70315384 -56.75927734 69.81152344 C-58.35420289 63.4854022 -60.0295772 57.21621912 -62.00927734 50.99902344 C-62.21496338 50.35280029 -62.42064941 49.70657715 -62.63256836 49.04077148 C-63.2362738 47.15152574 -63.84151106 45.2627697 -64.44677734 43.37402344 C-65.20066232 40.95856588 -65.95092832 38.54197443 -66.69677734 36.12402344 C-67.01130859 35.10824219 -67.32583984 34.09246094 -67.64990234 33.04589844 C-70.40001691 23.82492608 -70.50112736 15.46448323 -66.61474609 6.53027344 C-65.39321514 4.27513936 -64.12656797 2.31393912 -62.44677734 0.37402344 C-61.78677734 0.37402344 -61.12677734 0.37402344 -60.44677734 0.37402344 C-60.20572266 -0.23054687 -59.96466797 -0.83511719 -59.71630859 -1.45800781 C-58.17756418 -4.08570982 -56.80364086 -4.89131146 -54.13427734 -6.31347656 C-53.37501953 -6.72984375 -52.61576172 -7.14621094 -51.83349609 -7.57519531 C-35.70239115 -14.67710567 -15.46072539 -5.0380682 0 0 Z " fill="#252121" transform="translate(240.44677734375,157.6259765625)"/>
<path d="M0 0 C0.87060059 0.02239746 1.74120117 0.04479492 2.63818359 0.06787109 C8.26267031 0.31582872 13.48854748 1.29099253 18.625 3.6875 C21.8124044 7.27332995 22.38462972 10.96021778 22.625 15.6875 C22.3205382 18.69336837 21.69205303 20.77735537 20.625 23.6875 C18.25 25.5625 18.25 25.5625 15.625 26.6875 C15.03014801 27.0279837 14.43529602 27.36846741 13.82241821 27.7192688 C5.0460978 31.58631022 -7.40547528 29.83612238 -16.8359375 29.8203125 C-18.28032447 29.82098842 -19.72471132 29.82196082 -21.1690979 29.82321167 C-24.16922102 29.82467229 -27.16931402 29.8225855 -30.16943359 29.81787109 C-33.9988612 29.81214362 -37.82821915 29.81548218 -41.65764427 29.82144356 C-44.62945068 29.82506725 -47.60124072 29.82390281 -50.57304764 29.82131577 C-51.98513421 29.8206531 -53.39722231 29.82145158 -54.8093071 29.82379532 C-56.78221353 29.82635517 -58.75512525 29.8217573 -60.72802734 29.81689453 C-61.84575531 29.81609894 -62.96348328 29.81530334 -64.11508179 29.81448364 C-69.55585274 29.60254921 -74.39904125 28.94929943 -79.375 26.6875 C-79.375 26.0275 -79.375 25.3675 -79.375 24.6875 C-80.035 24.6875 -80.695 24.6875 -81.375 24.6875 C-81.375 24.0275 -81.375 23.3675 -81.375 22.6875 C-82.035 22.3575 -82.695 22.0275 -83.375 21.6875 C-83.82421875 19.54296875 -83.82421875 19.54296875 -84.0625 16.875 C-84.14886719 16.00230469 -84.23523438 15.12960938 -84.32421875 14.23046875 C-84.37241297 11.81705035 -84.0857703 9.98013502 -83.375 7.6875 C-82.715 7.6875 -82.055 7.6875 -81.375 7.6875 C-81.16875 7.089375 -80.9625 6.49125 -80.75 5.875 C-78.78763714 2.75305908 -76.77867258 2.07833102 -73.375 0.6875 C-70.49614329 0.30069977 -67.82543314 0.08078541 -64.9375 0 C-64.06206543 -0.03270996 -63.18663086 -0.06541992 -62.28466797 -0.09912109 C-41.56333434 -0.74848804 -20.71835385 -0.71008371 0 0 Z " fill="#322D2F" transform="translate(111.375,166.3125)"/>
<path d="M0 0 C1.65234375 1.04296875 1.65234375 1.04296875 4.08984375 3.16796875 C4.08984375 3.82796875 4.08984375 4.48796875 4.08984375 5.16796875 C4.74984375 5.16796875 5.40984375 5.16796875 6.08984375 5.16796875 C6.08984375 5.82796875 6.08984375 6.48796875 6.08984375 7.16796875 C6.74984375 7.16796875 7.40984375 7.16796875 8.08984375 7.16796875 C8.08984375 7.82796875 8.08984375 8.48796875 8.08984375 9.16796875 C8.74984375 9.16796875 9.40984375 9.16796875 10.08984375 9.16796875 C10.08984375 9.82796875 10.08984375 10.48796875 10.08984375 11.16796875 C10.74984375 11.16796875 11.40984375 11.16796875 12.08984375 11.16796875 C12.08984375 11.82796875 12.08984375 12.48796875 12.08984375 13.16796875 C12.70859375 13.41546875 13.32734375 13.66296875 13.96484375 13.91796875 C16.44053062 15.37425514 17.04109377 16.54609381 18.08984375 19.16796875 C18.74984375 19.16796875 19.40984375 19.16796875 20.08984375 19.16796875 C20.08984375 19.82796875 20.08984375 20.48796875 20.08984375 21.16796875 C20.74984375 21.16796875 21.40984375 21.16796875 22.08984375 21.16796875 C22.08984375 21.82796875 22.08984375 22.48796875 22.08984375 23.16796875 C22.74984375 23.16796875 23.40984375 23.16796875 24.08984375 23.16796875 C24.08984375 23.82796875 24.08984375 24.48796875 24.08984375 25.16796875 C24.74984375 25.16796875 25.40984375 25.16796875 26.08984375 25.16796875 C26.08984375 25.82796875 26.08984375 26.48796875 26.08984375 27.16796875 C26.74984375 27.16796875 27.40984375 27.16796875 28.08984375 27.16796875 C28.08984375 27.82796875 28.08984375 28.48796875 28.08984375 29.16796875 C29.40984375 29.82796875 30.72984375 30.48796875 32.08984375 31.16796875 C32.08984375 31.82796875 32.08984375 32.48796875 32.08984375 33.16796875 C32.74984375 33.16796875 33.40984375 33.16796875 34.08984375 33.16796875 C34.08984375 33.82796875 34.08984375 34.48796875 34.08984375 35.16796875 C34.70859375 35.41546875 35.32734375 35.66296875 35.96484375 35.91796875 C38.44053062 37.37425514 39.04109377 38.54609381 40.08984375 41.16796875 C40.74984375 41.16796875 41.40984375 41.16796875 42.08984375 41.16796875 C42.08984375 41.82796875 42.08984375 42.48796875 42.08984375 43.16796875 C42.74984375 43.16796875 43.40984375 43.16796875 44.08984375 43.16796875 C44.08984375 43.82796875 44.08984375 44.48796875 44.08984375 45.16796875 C44.64671875 45.40515625 45.20359375 45.64234375 45.77734375 45.88671875 C49.58544088 47.9966104 52.49416177 51.10860884 55.65234375 54.07421875 C57.78486449 55.90599938 59.59819905 56.95581728 62.08984375 58.16796875 C64.08329145 63.48382929 63.65645796 70.56154338 62.46484375 76.04296875 C60.36976923 79.28081119 58.600058 80.50523568 55.08984375 82.16796875 C49.95990789 83.24001417 45.884716 83.31110064 41.37890625 80.44140625 C39.08783229 78.45388153 37.0036186 76.52120302 35.08984375 74.16796875 C35.08984375 73.50796875 35.08984375 72.84796875 35.08984375 72.16796875 C34.42984375 72.16796875 33.76984375 72.16796875 33.08984375 72.16796875 C33.08984375 71.50796875 33.08984375 70.84796875 33.08984375 70.16796875 C32.42984375 70.16796875 31.76984375 70.16796875 31.08984375 70.16796875 C31.08984375 69.50796875 31.08984375 68.84796875 31.08984375 68.16796875 C30.42984375 68.16796875 29.76984375 68.16796875 29.08984375 68.16796875 C29.08984375 67.50796875 29.08984375 66.84796875 29.08984375 66.16796875 C28.42984375 66.16796875 27.76984375 66.16796875 27.08984375 66.16796875 C27.08984375 65.50796875 27.08984375 64.84796875 27.08984375 64.16796875 C26.42984375 64.16796875 25.76984375 64.16796875 25.08984375 64.16796875 C25.08984375 63.50796875 25.08984375 62.84796875 25.08984375 62.16796875 C24.42984375 62.16796875 23.76984375 62.16796875 23.08984375 62.16796875 C23.08984375 61.50796875 23.08984375 60.84796875 23.08984375 60.16796875 C22.42984375 60.16796875 21.76984375 60.16796875 21.08984375 60.16796875 C21.08984375 59.50796875 21.08984375 58.84796875 21.08984375 58.16796875 C20.42984375 58.16796875 19.76984375 58.16796875 19.08984375 58.16796875 C19.08984375 57.50796875 19.08984375 56.84796875 19.08984375 56.16796875 C18.42984375 56.16796875 17.76984375 56.16796875 17.08984375 56.16796875 C17.08984375 55.50796875 17.08984375 54.84796875 17.08984375 54.16796875 C16.42984375 54.16796875 15.76984375 54.16796875 15.08984375 54.16796875 C15.08984375 53.50796875 15.08984375 52.84796875 15.08984375 52.16796875 C14.42984375 52.16796875 13.76984375 52.16796875 13.08984375 52.16796875 C13.08984375 51.50796875 13.08984375 50.84796875 13.08984375 50.16796875 C12.42984375 50.16796875 11.76984375 50.16796875 11.08984375 50.16796875 C11.08984375 49.50796875 11.08984375 48.84796875 11.08984375 48.16796875 C10.42984375 48.16796875 9.76984375 48.16796875 9.08984375 48.16796875 C9.08984375 47.50796875 9.08984375 46.84796875 9.08984375 46.16796875 C8.42984375 46.16796875 7.76984375 46.16796875 7.08984375 46.16796875 C4.96484375 44.29296875 4.96484375 44.29296875 3.08984375 42.16796875 C3.08984375 41.50796875 3.08984375 40.84796875 3.08984375 40.16796875 C2.42984375 40.16796875 1.76984375 40.16796875 1.08984375 40.16796875 C1.08984375 39.50796875 1.08984375 38.84796875 1.08984375 38.16796875 C0.42984375 38.16796875 -0.23015625 38.16796875 -0.91015625 38.16796875 C-0.91015625 37.50796875 -0.91015625 36.84796875 -0.91015625 36.16796875 C-1.57015625 36.16796875 -2.23015625 36.16796875 -2.91015625 36.16796875 C-2.91015625 35.50796875 -2.91015625 34.84796875 -2.91015625 34.16796875 C-3.57015625 34.16796875 -4.23015625 34.16796875 -4.91015625 34.16796875 C-4.91015625 33.50796875 -4.91015625 32.84796875 -4.91015625 32.16796875 C-5.57015625 32.16796875 -6.23015625 32.16796875 -6.91015625 32.16796875 C-6.91015625 31.50796875 -6.91015625 30.84796875 -6.91015625 30.16796875 C-7.57015625 30.16796875 -8.23015625 30.16796875 -8.91015625 30.16796875 C-8.91015625 29.50796875 -8.91015625 28.84796875 -8.91015625 28.16796875 C-9.57015625 28.16796875 -10.23015625 28.16796875 -10.91015625 28.16796875 C-10.91015625 27.50796875 -10.91015625 26.84796875 -10.91015625 26.16796875 C-11.57015625 26.16796875 -12.23015625 26.16796875 -12.91015625 26.16796875 C-12.91015625 25.50796875 -12.91015625 24.84796875 -12.91015625 24.16796875 C-13.57015625 24.16796875 -14.23015625 24.16796875 -14.91015625 24.16796875 C-14.91015625 23.50796875 -14.91015625 22.84796875 -14.91015625 22.16796875 C-15.57015625 22.16796875 -16.23015625 22.16796875 -16.91015625 22.16796875 C-16.91015625 21.50796875 -16.91015625 20.84796875 -16.91015625 20.16796875 C-17.57015625 19.83796875 -18.23015625 19.50796875 -18.91015625 19.16796875 C-21.04464984 15.13614753 -21.39391164 11.6830191 -20.91015625 7.16796875 C-16.61583227 -0.09934876 -7.93791536 -3.45761958 0 0 Z " fill="#333031" transform="translate(94.91015625,52.83203125)"/>
<path d="M0 0 C0.639375 0.53625 1.27875 1.0725 1.9375 1.625 C1.9375 2.285 1.9375 2.945 1.9375 3.625 C2.5975 3.625 3.2575 3.625 3.9375 3.625 C6.66722973 12.15540541 6.66722973 12.15540541 5.9375 16.625 C2.82149669 21.96518499 -1.5105964 26.48690582 -6.0625 30.625 C-6.7225 30.625 -7.3825 30.625 -8.0625 30.625 C-8.0625 31.285 -8.0625 31.945 -8.0625 32.625 C-9.671875 34.17578125 -9.671875 34.17578125 -11.8125 35.9375 C-14.98011349 38.61262235 -17.49342965 41.36425686 -20.0625 44.625 C-20.7225 44.625 -21.3825 44.625 -22.0625 44.625 C-22.15515137 45.21917725 -22.24780273 45.81335449 -22.34326172 46.42553711 C-23.23633089 49.15658266 -24.34341149 50.02810384 -26.5703125 51.81640625 C-32.16302225 56.48947587 -37.15705947 61.7040369 -42.234375 66.92382812 C-42.95882812 67.65923828 -43.68328125 68.39464844 -44.4296875 69.15234375 C-45.08050293 69.81999756 -45.73131836 70.48765137 -46.40185547 71.17553711 C-48.0625 72.625 -48.0625 72.625 -50.0625 72.625 C-50.0625 73.285 -50.0625 73.945 -50.0625 74.625 C-50.7225 74.625 -51.3825 74.625 -52.0625 74.625 C-52.0625 75.285 -52.0625 75.945 -52.0625 76.625 C-52.7225 76.625 -53.3825 76.625 -54.0625 76.625 C-54.0625 77.285 -54.0625 77.945 -54.0625 78.625 C-58.77320202 81.45142121 -62.66439774 82.61626828 -68.0625 81.625 C-72.6939797 79.09079412 -76.37282562 76.69402315 -78.0625 71.625 C-78.61507822 65.7676709 -77.53027431 63.28387164 -74.0625 58.625 C-72.20314567 56.51281595 -70.23691606 54.52544771 -68.23999023 52.54370117 C-67.66876434 51.96897064 -67.09753845 51.39424011 -66.50900269 50.80209351 C-64.63467172 48.91901685 -62.75318839 47.04328337 -60.87109375 45.16796875 C-59.5609105 43.85643736 -58.2510242 42.54460927 -56.94142151 41.23249817 C-54.20352542 38.491661 -51.46206307 35.75445552 -48.71801758 33.01977539 C-45.19827399 29.51145954 -41.68763045 25.99419584 -38.17957973 22.47419262 C-35.48007049 19.7674662 -32.77582815 17.06550914 -30.07011604 14.36498451 C-28.77324604 13.06944965 -27.47786277 11.77242477 -26.18398857 10.47389793 C-24.37931964 8.66416253 -22.56838615 6.86094098 -20.75561523 5.05932617 C-20.22099167 4.52065414 -19.6863681 3.98198212 -19.13554382 3.42698669 C-13.67972208 -1.96664779 -7.08811183 -3.18241756 0 0 Z " fill="#353132" transform="translate(328.0625,53.375)"/>
<path d="M0 0 C2.91625685 1.42710441 4.71657366 2.71657366 7 5 C7 6.32 7 7.64 7 9 C7.99 9.495 7.99 9.495 9 10 C9.21500509 14.51510679 9.06954515 17.94369151 7 22 C4.8628416 23.87272298 2.62837296 25.52524382 0.32421875 27.1875 C-1.93302968 28.9477744 -3.63223306 30.72660518 -5.4375 32.9375 C-6.283125 33.948125 -7.12875 34.95875 -8 36 C-8.66 36 -9.32 36 -10 36 C-10.25136719 36.57878906 -10.50273437 37.15757812 -10.76171875 37.75390625 C-12.15592914 40.28283677 -13.73790358 41.9343046 -15.8125 43.9375 C-16.52921875 44.63617188 -17.2459375 45.33484375 -17.984375 46.0546875 C-18.64953125 46.69664062 -19.3146875 47.33859375 -20 48 C-20.845625 48.845625 -21.69125 49.69125 -22.5625 50.5625 C-27.375 55.375 -32.1875 60.1875 -37 65 C-37.556875 65.598125 -38.11375 66.19625 -38.6875 66.8125 C-40 68 -40 68 -42 68 C-42 68.66 -42 69.32 -42 70 C-42.66 70 -43.32 70 -44 70 C-44 70.66 -44 71.32 -44 72 C-45.6396721 73.36639342 -47.31110128 74.6949419 -49 76 C-49.680625 76.70125 -50.36125 77.4025 -51.0625 78.125 C-53.58571801 80.56682388 -55.68946148 81.86387012 -59.21875 82.23046875 C-59.9715625 82.21628906 -60.724375 82.20210938 -61.5 82.1875 C-62.62921875 82.17783203 -62.62921875 82.17783203 -63.78125 82.16796875 C-65.95990143 82.00303563 -67.90204811 81.59600906 -70 81 C-70 80.34 -70 79.68 -70 79 C-70.66 79 -71.32 79 -72 79 C-72 78.34 -72 77.68 -72 77 C-72.66 76.67 -73.32 76.34 -74 76 C-74.5546875 73.9609375 -74.5546875 73.9609375 -74.875 71.375 C-74.99617188 70.53710938 -75.11734375 69.69921875 -75.2421875 68.8359375 C-74.67767531 62.22568191 -69.80197828 57.36348233 -65.28515625 52.9128418 C-64.44535721 52.06756676 -64.44535721 52.06756676 -63.58859253 51.20521545 C-61.75385321 49.36243331 -59.90857148 47.53064279 -58.0625 45.69921875 C-56.77691377 44.4141517 -55.4918469 43.1285649 -54.20727539 41.84248352 C-51.52210862 39.15740618 -48.83187534 36.4775464 -46.13769531 33.80151367 C-42.68582689 30.37238846 -39.24520248 26.93223855 -35.80805969 23.4883604 C-33.15932565 20.83628543 -30.50562988 18.18922216 -27.85031128 15.54374123 C-26.57952921 14.27680496 -25.31008877 13.0085215 -24.04202271 11.73886681 C-22.2711775 9.96765066 -20.49397397 8.20307436 -18.71484375 6.44018555 C-18.1931662 5.91603058 -17.67148865 5.39187561 -17.13400269 4.85183716 C-11.37576215 -0.82276021 -7.76212281 -1.71875577 0 0 Z " fill="#312D2E" transform="translate(150,228)"/>
<path d="M0 0 C3.3540779 2.18405072 5.20258654 3.92479512 6.24194336 7.83691406 C6.83498585 11.71427463 6.92308427 15.57039655 7.00390625 19.484375 C7.0248233 20.34290573 7.04574036 21.20143646 7.06729126 22.08598328 C7.1335812 24.89056358 7.19250965 27.69522629 7.25 30.5 C7.27051422 31.45641388 7.29102844 32.41282776 7.31216431 33.39822388 C7.57222792 45.63578227 7.8037577 57.87521564 7.86373901 70.11560059 C7.87465655 72.12430863 7.89433932 74.13296309 7.91430664 76.14160156 C7.93209847 94.26080306 7.93209847 94.26080306 4.6875 100.75 C4.0275 100.75 3.3675 100.75 2.6875 100.75 C2.6875 101.41 2.6875 102.07 2.6875 102.75 C-1.90316341 105.11937467 -6.26277747 105.32027832 -11.3125 104.75 C-15.54974069 103.14926463 -17.30031794 100.6949764 -19.46739769 96.77136803 C-20.9350834 93.26086648 -20.84476646 89.88199457 -20.7824707 86.12426758 C-20.7846611 85.29086349 -20.7868515 84.45745941 -20.78910828 83.59880066 C-20.7914065 80.86363082 -20.76523891 78.12955624 -20.73828125 75.39453125 C-20.73335377 73.48598064 -20.73005722 71.57742519 -20.72831726 69.66886902 C-20.72069362 65.67858321 -20.70018 61.6886582 -20.66918945 57.69848633 C-20.62953527 52.58391272 -20.61156525 47.46957302 -20.60188007 42.35486317 C-20.59190917 37.4722209 -20.5720321 32.58963554 -20.55078125 27.70703125 C-20.5473855 26.77602915 -20.54398975 25.84502705 -20.5404911 24.88581276 C-20.52891244 22.25298924 -20.51039246 19.62031297 -20.48950195 16.98754883 C-20.48681305 16.20876373 -20.48412415 15.42997864 -20.48135376 14.62759399 C-20.44727914 11.20361027 -20.38996554 8.02281461 -19.3125 4.75 C-18.6525 4.75 -17.9925 4.75 -17.3125 4.75 C-17.065 4.13125 -16.8175 3.5125 -16.5625 2.875 C-13.05919667 -3.08061566 -5.68160053 -2.1440002 0 0 Z " fill="#2C282A" transform="translate(211.3125,5.25)"/>
<path d="M0 0 C3 2 3 2 3.66772461 4.07910156 C4.10943314 7.9619824 4.2358042 11.83104742 4.31640625 15.734375 C4.3373233 16.59290573 4.35824036 17.45143646 4.37979126 18.33598328 C4.4460812 21.14056358 4.50500965 23.94522629 4.5625 26.75 C4.58301422 27.70641388 4.60352844 28.66282776 4.62466431 29.64822388 C4.88472792 41.88578227 5.1162577 54.12521564 5.17623901 66.36560059 C5.18715655 68.37430863 5.20683932 70.38296309 5.22680664 72.39160156 C5.24459847 90.51080306 5.24459847 90.51080306 2 97 C1.34 97 0.68 97 0 97 C0 97.66 0 98.32 0 99 C-2.475 99.495 -2.475 99.495 -5 100 C-3.7934375 98.9171875 -3.7934375 98.9171875 -2.5625 97.8125 C1.81240018 93.01078029 1.14536025 87.73112505 1.12939453 81.49365234 C1.13114685 80.64918045 1.13289917 79.80470856 1.13470459 78.93464661 C1.13909518 76.15172249 1.13619547 73.36886223 1.1328125 70.5859375 C1.13348621 68.64970894 1.13445681 66.71348047 1.13571167 64.7772522 C1.13718475 60.72388909 1.13504611 56.67054804 1.13037109 52.6171875 C1.12466642 47.41727638 1.12795995 42.21741679 1.13394356 37.01750755 C1.13755317 33.02159231 1.13640887 29.02568932 1.13381577 25.02977371 C1.133148 23.11198546 1.13396968 21.1941961 1.13629532 19.27640915 C1.1388292 16.6000955 1.13497114 13.92386597 1.12939453 11.24755859 C1.13141876 10.45268539 1.13344299 9.65781219 1.13552856 8.83885193 C1.12310587 5.62756326 1.02303954 3.06911863 0 0 Z " fill="#A5A4A5" transform="translate(214,9)"/>
<path d="M0 0 C0.8957373 0.03077637 1.79147461 0.06155273 2.71435547 0.09326172 C7.29099188 0.31068127 11.12871445 0.90707253 15.4375 2.625 C12.16124832 4.26312584 8.54504641 3.70252825 4.94873047 3.64672852 C3.63156036 3.6323172 3.63156036 3.6323172 2.28778076 3.61761475 C-0.62333013 3.58455522 -3.53429418 3.54424941 -6.4453125 3.50390625 C-8.46027097 3.47961193 -10.47523492 3.45576803 -12.49020386 3.43235779 C-17.80033596 3.36944842 -23.11037142 3.30040121 -28.42041016 3.23010254 C-33.83621814 3.15948092 -39.2520948 3.09462705 -44.66796875 3.02929688 C-55.29955463 2.90019622 -65.93104737 2.76461533 -76.5625 2.625 C-72.80019957 0.11679971 -69.69113569 0.16318428 -65.3125 0 C-63.97904541 -0.05583252 -63.97904541 -0.05583252 -62.61865234 -0.11279297 C-41.79318174 -0.85181621 -20.82187657 -0.80070809 0 0 Z " fill="#C5C4C5" transform="translate(111.5625,166.375)"/>
<path d="M0 0 C1.32 0.33 2.64 0.66 4 1 C4 1.66 4 2.32 4 3 C4.99 3.33 5.98 3.66 7 4 C8.3515625 5.85546875 8.3515625 5.85546875 9.625 8.1875 C10.26308594 9.32251953 10.26308594 9.32251953 10.9140625 10.48046875 C14.16594263 18.02529855 14.0594864 27.83268684 12.0625 35.6875 C4.65516155 47.58413448 -5.61916374 54.98574912 -19 59 C-21.359375 58.6328125 -21.359375 58.6328125 -23 58 C-22.35675781 57.72027344 -21.71351563 57.44054687 -21.05078125 57.15234375 C-18.01529394 55.80564396 -15.00579909 54.41176057 -12 53 C-10.88496094 52.48050781 -9.76992188 51.96101563 -8.62109375 51.42578125 C-0.32515418 47.30184374 5.56218412 42.94893637 9.14453125 34.20703125 C11.03641625 27.11462218 11.43555455 18.77066115 8.796875 11.83984375 C6.79604841 8.40913351 5.00330385 5.74536225 1.796875 3.36328125 C1.20390625 2.91339844 0.6109375 2.46351563 0 2 C0 1.34 0 0.68 0 0 Z " fill="#C7C6C7" transform="translate(518,244)"/>
<path d="M0 0 C0.99 0.66 1.98 1.32 3 2 C-1.43320006 6.53480023 -5.88215051 11.05370107 -10.34228516 15.56201172 C-11.8570088 17.09682367 -13.36811952 18.63521015 -14.87548828 20.17724609 C-17.04555401 22.39594876 -19.22838153 24.60137931 -21.4140625 26.8046875 C-22.08305573 27.49432587 -22.75204895 28.18396423 -23.4413147 28.89450073 C-27.07461552 32.52951615 -29.81611633 34.87062886 -35 36 C-30.88670129 31.09526099 -26.61457539 26.4780472 -22.0703125 21.97265625 C-21.43511688 21.33887558 -20.79992126 20.70509491 -20.14547729 20.05210876 C-18.14101284 18.05318594 -16.13307786 16.05779216 -14.125 14.0625 C-12.75497611 12.69749867 -11.38518226 11.3322664 -10.015625 9.96679688 C-6.67973457 6.64185789 -3.34072964 3.32007647 0 0 Z " fill="#5C595A" transform="translate(115,251)"/>
<path d="M0 0 C0.66 0.66 1.32 1.32 2 2 C1.25556641 3.57974609 1.25556641 3.57974609 0.49609375 5.19140625 C-0.92487638 8.20753675 -2.34378153 11.22463011 -3.76171875 14.2421875 C-5.17531325 17.25012119 -6.59449497 20.25528436 -8.01953125 23.2578125 C-8.63809805 24.56767187 -9.25659124 25.87756601 -9.875 27.1875 C-10.42929687 28.35667969 -10.98359375 29.52585937 -11.5546875 30.73046875 C-12.90370011 33.78215402 -14.00516247 36.81748578 -15 40 C-15.66 40 -16.32 40 -17 40 C-17.10441406 40.6909375 -17.20882813 41.381875 -17.31640625 42.09375 C-18.11663281 45.49585608 -19.43133642 48.34773589 -20.9375 51.5 C-23.11940903 56.07866459 -23.11940903 56.07866459 -25.05859375 60.76171875 C-26.20725732 63.49277363 -27.81597537 65.03437784 -30 67 C-27.70360615 61.13714354 -25.09072027 55.41562073 -22.51464844 49.67211914 C-21.63276689 47.7048263 -20.75379682 45.73625049 -19.875 43.76757812 C-17.04474888 37.44291256 -14.15206383 31.17248694 -11 25 C-9.29745911 21.25441005 -7.84204191 17.54809041 -6.625 13.625 C-5.04475182 8.71524497 -2.63935634 4.41283689 0 0 Z " fill="#DDDDDD" transform="translate(345,428)"/>
<path d="M0 0 C0.33 0.66 0.66 1.32 1 2 C1.99 2.33 2.98 2.66 4 3 C3.34 3 2.68 3 2 3 C2 3.66 2 4.32 2 5 C3.32 5.33 4.64 5.66 6 6 C5.92845703 7.72669922 5.92845703 7.72669922 5.85546875 9.48828125 C5.85847617 14.04853744 6.90365106 17.88184938 8.3125 22.1875 C8.77785066 23.68002314 9.2400638 25.17352795 9.69921875 26.66796875 C9.92399902 27.39935059 10.1487793 28.13073242 10.38037109 28.88427734 C11.56136917 32.91679482 12.41116815 37.02248297 13.30859375 41.125 C13.95788086 43.82486052 14.76237734 46.38383917 15.6875 49 C16.78831639 52.11324636 17.32344645 54.65771999 17 58 C16.67 56.68 16.34 55.36 16 54 C15.34 54 14.68 54 14 54 C13.87471924 53.4423999 13.74943848 52.8847998 13.62036133 52.31030273 C11.25380928 41.86205593 8.72632115 31.63923926 5.203125 21.515625 C0 6.31168831 0 6.31168831 0 0 Z " fill="#BFBFBF" transform="translate(226,363)"/>
<path d="M0 0 C0.71533203 1.74536133 0.71533203 1.74536133 1 4 C-0.36767578 5.9987793 -0.36767578 5.9987793 -2.4453125 8.07421875 C-3.19296875 8.82380859 -3.940625 9.57339844 -4.7109375 10.34570312 C-5.90589844 11.50489258 -5.90589844 11.50489258 -7.125 12.6875 C-7.8984375 13.47189453 -8.671875 14.25628906 -9.46875 15.06445312 C-15.8652087 21.37904588 -15.8652087 21.37904588 -21 22 C-16.61557474 16.74825074 -11.99157907 11.86777527 -7.125 7.0625 C-6.43664062 6.37865234 -5.74828125 5.69480469 -5.0390625 4.99023438 C-3.36166489 3.32448536 -1.68196209 1.6611378 0 0 Z " fill="#545152" transform="translate(310,56)"/>
<path d="M0 0 C0.66 0 1.32 0 2 0 C6.66744404 15.18475129 11.14102441 30.35087043 14 46 C13.34 46 12.68 46 12 46 C11.8046875 43.94921875 11.609375 41.8984375 11.4140625 39.84765625 C11.20910156 38.93306641 11.20910156 38.93306641 11 38 C10.34 37.67 9.68 37.34 9 37 C8.25059048 34.00236191 7.60878273 31.02700303 7 28 C5.52250739 21.18338638 3.94813992 14.52659339 1.62890625 7.9453125 C0.78516497 5.33547921 0.34820163 2.71597274 0 0 Z " fill="#BBBABA" transform="translate(189,241)"/>
<path d="M0 0 C0.33 1.32 0.66 2.64 1 4 C-0.29174805 5.9387207 -0.29174805 5.9387207 -2.26171875 7.92578125 C-2.96876953 8.63927734 -3.67582031 9.35277344 -4.40429688 10.08789062 C-5.53448242 11.18907227 -5.53448242 11.18907227 -6.6875 12.3125 C-7.42162109 13.06595703 -8.15574219 13.81941406 -8.91210938 14.59570312 C-9.98235352 15.6562793 -9.98235352 15.6562793 -11.07421875 16.73828125 C-11.72994873 17.38837158 -12.38567871 18.03846191 -13.0612793 18.70825195 C-14.02094604 19.34766724 -14.02094604 19.34766724 -15 20 C-16.32 19.67 -17.64 19.34 -19 19 C-12.73 12.73 -6.46 6.46 0 0 Z " fill="#5E5C5C" transform="translate(277,89)"/>
<path d="M0 0 C2.21275391 1.05029333 4.2520397 2.16489377 6.3046875 3.5078125 C13.85965727 8.26124332 20.18289893 9.08661457 29 8 C32.19587287 7.23558176 34.95166618 6.26137951 38 5 C35.47983761 8.78024358 34.37384455 8.92572239 30 10 C20.11872403 11.59910726 13.09315439 10.86607177 4.69921875 5.30859375 C2.70683341 3.77422803 1.28268873 2.16453723 0 0 Z " fill="#D6D6D6" transform="translate(269,497)"/>
<path d="M0 0 C0.33 0.66 0.66 1.32 1 2 C0.34 2 -0.32 2 -1 2 C-1.433125 2.9590625 -1.433125 2.9590625 -1.875 3.9375 C-3 6 -3 6 -5 7 C-5.598125 7.78375 -6.19625 8.5675 -6.8125 9.375 C-9.04277227 12.05132672 -10.8655172 13.51524499 -14 15 C-14.66 14.67 -15.32 14.34 -16 14 C-14.0894422 12.03536981 -12.17204686 10.07833599 -10.25 8.125 C-9.44175781 7.29162109 -9.44175781 7.29162109 -8.6171875 6.44140625 C-3.62791314 1.39128708 -3.62791314 1.39128708 0 0 Z " fill="#7F7D7E" transform="translate(141,227)"/>
<path d="M0 0 C0.66 0.66 1.32 1.32 2 2 C0.70892916 4.75028114 -0.58283341 7.50023373 -1.875 10.25 C-2.23980469 11.02730469 -2.60460937 11.80460937 -2.98046875 12.60546875 C-3.33496094 13.35957031 -3.68945312 14.11367188 -4.0546875 14.890625 C-4.37937012 15.58188477 -4.70405273 16.27314453 -5.03857422 16.98535156 C-6.00143101 19.00299865 -6.99396213 21.00358243 -8 23 C-8.66 23 -9.32 23 -10 23 C-8.00226249 14.5714503 -4.27114954 7.46573535 0 0 Z " fill="#B4B3B4" transform="translate(345,428)"/>
<path d="M0 0 C1.98 0.99 3.96 1.98 6 3 C6 3.66 6 4.32 6 5 C6.66 5 7.32 5 8 5 C9.71767682 8.98188718 11.41037341 12.96479403 13 17 C12.34 17.33 11.68 17.66 11 18 C10.18595703 16.64455078 10.18595703 16.64455078 9.35546875 15.26171875 C8.63303739 14.07017612 7.91036864 12.8787774 7.1875 11.6875 C6.65286133 10.79514648 6.65286133 10.79514648 6.10742188 9.88476562 C4.29691716 6.91155145 2.48504874 4.42233457 0 2 C0 1.34 0 0.68 0 0 Z " fill="#CCCDCD" transform="translate(518,427)"/>
<path d="M0 0 C-3.98848601 2.02371458 -7.98867018 4.0219475 -12 6 C-13.09634766 6.54527344 -13.09634766 6.54527344 -14.21484375 7.1015625 C-17.64190555 8.7063573 -19.41492408 9.12033623 -23 8 C-22.29875 7.68546875 -21.5975 7.3709375 -20.875 7.046875 C-19.451875 6.40492188 -19.451875 6.40492188 -18 5.75 C-16.49759766 5.07324219 -16.49759766 5.07324219 -14.96484375 4.3828125 C-12.44305432 3.20664194 -10.0087663 1.94755607 -7.5625 0.625 C-3.9140758 -1.0391935 -3.49659364 -1.18346246 0 0 Z " fill="#CCCCCB" transform="translate(518,294)"/>
<path d="M0 0 C0.66 0.33 1.32 0.66 2 1 C1.0409375 1.9590625 1.0409375 1.9590625 0.0625 2.9375 C-2.92353966 7.37131646 -3 11.75685494 -3 17 C-3.66 17 -4.32 17 -5 17 C-6.1891713 13.28383968 -6.34026535 9.87902498 -6 6 C-4.20437595 3.24670979 -2.94745078 1.47372539 0 0 Z " fill="#D5D4D5" transform="translate(80,54)"/>
<path d="M0 0 C0.33 1.32 0.66 2.64 1 4 C-1.53544951 7.89849191 -5.84762846 11.03915788 -10 13 C-10.66 12.67 -11.32 12.34 -12 12 C-8.04 8.04 -4.08 4.08 0 0 Z " fill="#6C6A6B" transform="translate(310,56)"/>
<path d="M0 0 C0.33 0.66 0.66 1.32 1 2 C1.99 2.33 2.98 2.66 4 3 C3.34 3 2.68 3 2 3 C2 3.66 2 4.32 2 5 C3.32 5.33 4.64 5.66 6 6 C5.67 8.31 5.34 10.62 5 13 C4.34 13 3.68 13 3 13 C2.49242138 11.58603098 1.99425075 10.16868271 1.5 8.75 C1.08234375 7.56664062 1.08234375 7.56664062 0.65625 6.359375 C0 4 0 4 0 0 Z " fill="#717071" transform="translate(226,363)"/>
<path d="M0 0 C0.66 0.33 1.32 0.66 2 1 C2.21234644 5.45927519 1.82231987 8.8997803 0 13 C-2.125 14.875 -2.125 14.875 -4 16 C-4.66 15.67 -5.32 15.34 -6 15 C-5.195625 14.01 -4.39125 13.02 -3.5625 12 C-0.67317108 8.00880836 -0.25616233 4.86708428 0 0 Z " fill="#E4E4E4" transform="translate(157,237)"/>
<path d="M0 0 C3.30081791 1.61897259 6.52557433 3.35924309 9.75 5.125 C11.22726562 5.93324219 11.22726562 5.93324219 12.734375 6.7578125 C13.48203125 7.16773438 14.2296875 7.57765625 15 8 C12.53953904 8.89721507 11.42208342 9.17742086 8.96484375 8.14453125 C2.1876826 3.69171439 2.1876826 3.69171439 0 0 Z " fill="#BBBBBB" transform="translate(269,497)"/>
<path d="M0 0 C2.48422812 1.55644496 3.80418158 2.50534563 4.8984375 5.26953125 C5.87014622 10.4546327 6.34468764 14.05010386 4 19 C2.7547394 16.5094788 3.03238093 15.01698883 3.1875 12.25 C3.2685756 7.16434874 2.24195735 4.84982435 -1 1 C-0.67 0.67 -0.34 0.34 0 0 Z " fill="#CCCBCC" transform="translate(128,169)"/>
<path d="M0 0 C5.4389165 -0.21755666 9.87080814 -0.10428384 15 2 C15 2.33 15 2.66 15 3 C11.7 3 8.4 3 5 3 C5 2.34 5 1.68 5 1 C3.35 1.33 1.7 1.66 0 2 C0 1.34 0 0.68 0 0 Z " fill="#757374" transform="translate(285,174)"/>
<path d="M0 0 C0.33 0.99 0.66 1.98 1 3 C-0.29296875 5.0078125 -0.29296875 5.0078125 -2.1875 7.125 C-2.79980469 7.82882812 -3.41210938 8.53265625 -4.04296875 9.2578125 C-6.08877269 11.07902718 -7.32606465 11.60869239 -10 12 C-9.278125 11.319375 -8.55625 10.63875 -7.8125 9.9375 C-4.76544307 6.90785482 -2.42792046 3.53782696 0 0 Z " fill="#BBBAB9" transform="translate(526,281)"/>
<path d="M0 0 C0.66 0.33 1.32 0.66 2 1 C0.02 2.98 -1.96 4.96 -4 7 C-4.99 6.67 -5.98 6.34 -7 6 C-5.01180815 3.01771223 -3.42353587 1.21480305 0 0 Z " fill="#464445" transform="translate(128,240)"/>
<path d="M0 0 C1.32 0.33 2.64 0.66 4 1 C0.80009492 3.74277578 -2.00499382 5.6302836 -6 7 C-4.02 4.69 -2.04 2.38 0 0 Z " fill="#656364" transform="translate(131,235)"/>
<path d="M0 0 C0.66 0.33 1.32 0.66 2 1 C1.071875 2.1446875 1.071875 2.1446875 0.125 3.3125 C-2.05597052 5.99625809 -2.05597052 5.99625809 -4 9 C-4.25 6.1875 -4.25 6.1875 -4 3 C-2 1.125 -2 1.125 0 0 Z " fill="#89898A" transform="translate(80,54)"/>
<path d="M0 0 C0.99 0.33 1.98 0.66 3 1 C4.6875 4.5625 4.6875 4.5625 6 8 C5.01 8.495 5.01 8.495 4 9 C0 2.25 0 2.25 0 0 Z " fill="#BFBFC0" transform="translate(525,436)"/>
<path d="M0 0 C0.66 0.66 1.32 1.32 2 2 C0.68 4.64 -0.64 7.28 -2 10 C-2.33 10 -2.66 10 -3 10 C-3.36629408 5.72656908 -2.40814077 3.51187196 0 0 Z " fill="#CACACA" transform="translate(345,428)"/>
<path d="M0 0 C0 0.33 0 0.66 0 1 C-2.64 1 -5.28 1 -8 1 C-8.33 0.34 -8.66 -0.32 -9 -1 C-5.23375329 -2.25541557 -3.62811066 -1.37061958 0 0 Z " fill="#141417" transform="translate(148,132)"/>
<path d="" fill="#FEFEFE" transform="translate(0,0)"/>
<path d="" fill="#FEFEFE" transform="translate(0,0)"/>
<path d="" fill="#FEFEFE" transform="translate(0,0)"/>
<path d="" fill="#FEFEFE" transform="translate(0,0)"/>
<path d="" fill="#FEFEFE" transform="translate(0,0)"/>
<path d="" fill="#FDFDFD" transform="translate(0,0)"/>
<path d="" fill="#FEFEFE" transform="translate(0,0)"/>
</svg>
