<?xml version="1.0" encoding="UTF-8"?>
<svg version="1.1" xmlns="http://www.w3.org/2000/svg" width="50" height="50">
<path d="M0 0 C4.17334623 0.38363953 6.10840883 1.62412944 8.98828125 4.59765625 C9.69404297 5.31630859 10.39980469 6.03496094 11.12695312 6.77539062 C11.84818359 7.53013672 12.56941406 8.28488281 13.3125 9.0625 C14.05306641 9.82111328 14.79363281 10.57972656 15.55664062 11.36132812 C17.38043834 13.23219159 19.19424304 15.11174492 21 17 C24.16577674 15.61299325 26.16025983 14.02157405 28.49609375 11.48828125 C29.45805664 10.47604492 29.45805664 10.47604492 30.43945312 9.44335938 C31.7755247 8.01847757 33.10364227 6.58609708 34.42382812 5.14648438 C35.06642578 4.47552734 35.70902344 3.80457031 36.37109375 3.11328125 C36.94786865 2.49235596 37.52464355 1.87143066 38.11889648 1.23168945 C40 0 40 0 42.72680664 0.30541992 C43.47696045 0.53463135 44.22711426 0.76384277 45 1 C41.84222146 6.6266097 37.63165046 10.81103125 33.125 15.375 C32.32191406 16.21933594 31.51882812 17.06367188 30.69140625 17.93359375 C29.90894531 18.72636719 29.12648438 19.51914062 28.3203125 20.3359375 C27.61148926 21.06345215 26.90266602 21.7909668 26.17236328 22.54052734 C24 24 24 24 21.51806641 23.98828125 C18.41280139 22.76953849 16.7356025 21.22178142 14.390625 18.8515625 C13.55402344 18.01109375 12.71742187 17.170625 11.85546875 16.3046875 C10.99566406 15.42039062 10.13585937 14.53609375 9.25 13.625 C8.37472656 12.7484375 7.49945313 11.871875 6.59765625 10.96875 C0.14049693 4.42149078 0.14049693 4.42149078 -1 1 C-0.67 0.67 -0.34 0.34 0 0 Z " fill="#000000" transform="translate(3,13)"/>
</svg>
