<?xml version="1.0" standalone="no"?>
<!DOCTYPE svg PUBLIC "-//W3C//DTD SVG 20010904//EN"
 "http://www.w3.org/TR/2001/REC-SVG-20010904/DTD/svg10.dtd">
<svg version="1.0" xmlns="http://www.w3.org/2000/svg"
 width="512.000000pt" height="512.000000pt" viewBox="0 0 512.000000 512.000000"
 preserveAspectRatio="xMidYMid meet">

<g transform="translate(0.000000,512.000000) scale(0.100000,-0.100000)"
fill="#000000" stroke="none">
<path d="M3395 4734 c-45 -23 -66 -45 -86 -89 -22 -46 -23 -75 -8 -130 9 -33
58 -87 277 -308 l266 -267 -942 -943 c-929 -929 -942 -943 -942 -982 0 -37 8
-47 183 -223 100 -101 193 -188 206 -193 15 -6 35 -6 55 1 21 7 332 311 966
945 l935 935 260 -259 c143 -142 275 -267 294 -276 25 -12 51 -16 92 -13 70 5
122 41 150 102 18 39 19 80 19 806 0 726 -1 767 -19 806 -10 23 -36 54 -57 70
l-37 29 -791 3 c-703 2 -794 0 -821 -14z"/>
<path d="M730 4384 c-201 -31 -330 -91 -468 -219 -108 -99 -189 -230 -234
-377 l-23 -73 -3 -1294 c-3 -1422 -4 -1390 57 -1540 89 -220 282 -398 516
-479 l80 -27 1320 -3 c1444 -3 1397 -5 1538 55 228 97 396 282 478 528 23 69
23 74 27 627 l3 558 -25 25 c-24 24 -30 25 -156 25 -126 0 -132 -1 -155 -25
l-25 -24 0 -473 c0 -264 -5 -504 -10 -543 -28 -194 -184 -354 -376 -385 -83
-14 -2439 -13 -2524 1 -166 26 -305 144 -361 307 -18 53 -19 104 -19 1326 0
1348 -1 1306 45 1397 46 90 148 182 242 221 l58 23 1077 5 1078 5 27 27 c25
26 28 35 31 125 2 57 -1 116 -8 141 -20 77 51 72 -1122 71 -574 -1 -1054 -3
-1068 -5z"/>
</g>
</svg>
