<?xml version="1.0" encoding="UTF-8"?>
<!DOCTYPE svg PUBLIC "-//W3C//DTD SVG 1.1//EN" "http://www.w3.org/Graphics/SVG/1.1/DTD/svg11.dtd">
<svg xmlns="http://www.w3.org/2000/svg" version="1.1" width="812px" height="1275px" style="shape-rendering:geometricPrecision; text-rendering:geometricPrecision; image-rendering:optimizeQuality; fill-rule:evenodd; clip-rule:evenodd" xmlns:xlink="http://www.w3.org/1999/xlink">
<g><path style="opacity:0.906" fill="#ebebeb" d="M 57.5,48.5 C 282.667,48.1669 507.667,48.5002 732.5,49.5C 731.451,52.4169 729.784,52.9169 727.5,51C 503.831,51.1659 280.498,50.3326 57.5,48.5 Z"/></g>
<g><path style="opacity:0.934" fill="#fdfdfd" d="M 57.5,48.5 C 280.498,50.3326 503.831,51.1659 727.5,51C 729.784,52.9169 731.451,52.4169 732.5,49.5C 732.938,49.4346 733.272,49.6012 733.5,50C 651.543,169.413 569.71,288.913 488,408.5C 487.333,409.833 487.333,411.167 488,412.5C 499.53,436.531 506.364,461.698 508.5,488C 508.079,491.797 506.746,492.297 504.5,489.5C 498.526,481.026 492.359,472.693 486,464.5C 486.564,490.249 488.064,516.083 490.5,542C 489.688,548.085 489.188,554.252 489,560.5C 484.956,566.211 479.956,570.878 474,574.5C 472.201,577.927 471.035,581.594 470.5,585.5C 470.709,586.086 471.043,586.586 471.5,587C 470.415,593.286 469.415,599.62 468.5,606C 469.022,606.561 469.355,607.228 469.5,608C 466.757,629.884 465.09,652.051 464.5,674.5C 465.26,695.552 466.76,716.552 469,737.5C 470.681,744.585 472.681,751.585 475,758.5C 479.281,765.115 483.947,771.448 489,777.5C 501.382,806.998 513.549,836.498 525.5,866C 513.172,894.616 501.006,923.45 489,952.5C 487.623,954.754 486.123,956.92 484.5,959C 454.562,971.143 424.562,982.976 394.5,994.5C 367.072,984.301 339.739,973.801 312.5,963C 308.637,961.819 305.137,959.986 302,957.5C 288.555,926.944 275.388,896.278 262.5,865.5C 268.542,849.871 274.876,834.371 281.5,819C 277.996,813.796 274.829,808.296 272,802.5C 269.965,796.338 267.632,790.338 265,784.5C 262.041,763.205 259.375,741.872 257,720.5C 254.228,711.622 250.895,702.955 247,694.5C 237.202,683.034 227.036,671.867 216.5,661C 215.167,660.333 213.833,659.667 212.5,659C 201.549,657.292 190.549,656.625 179.5,657C 164.668,666.584 149.668,675.917 134.5,685C 130.385,685.571 127.885,683.737 127,679.5C 119.04,647.993 111.873,616.327 105.5,584.5C 106.729,568.476 108.229,552.476 110,536.5C 112.531,529.239 114.865,521.906 117,514.5C 127.183,492.803 137.35,471.136 147.5,449.5C 148.689,448.571 150.022,448.238 151.5,448.5C 151.333,460.838 151.5,473.171 152,485.5C 152.667,486.833 153.333,488.167 154,489.5C 165.141,499.304 176.308,509.138 187.5,519C 190.338,521.12 193.004,520.953 195.5,518.5C 203.06,508.542 209.726,498.042 215.5,487C 208.472,469.226 200.305,452.059 191,435.5C 188.543,430.583 188.209,425.583 190,420.5C 200.716,407.452 211.049,394.119 221,380.5C 225.822,364.879 230.489,349.212 235,333.5C 236.424,327.224 236.758,320.891 236,314.5C 176.029,226.363 115.862,138.363 55.5,50.5C 55.8555,49.4777 56.5222,48.811 57.5,48.5 Z M 112.5,68.5 C 301.627,68.9712 490.627,68.9712 679.5,68.5C 684.5,68.5 689.5,68.5 694.5,68.5C 622.692,176.09 549.858,283.09 476,389.5C 469.41,374.728 463.41,359.728 458,344.5C 455.293,337.511 452.127,330.844 448.5,324.5C 447.348,327.106 447.182,329.773 448,332.5C 454.091,357.395 459.424,382.395 464,407.5C 441.333,440.833 418.667,474.167 396,507.5C 395,508.833 394,508.833 393,507.5C 381.58,490.326 369.914,473.326 358,456.5C 357.505,454.527 357.338,452.527 357.5,450.5C 356.022,450.762 354.689,450.429 353.5,449.5C 321.512,402.351 289.345,355.351 257,308.5C 256.138,306.913 255.471,305.246 255,303.5C 254.093,295.288 253.26,287.288 252.5,279.5C 253.729,273.537 254.229,267.537 254,261.5C 253.333,260.167 252.667,260.167 252,261.5C 248.803,270.092 245.803,278.758 243,287.5C 192.926,215.026 143.093,142.36 93.5,69.5C 94.8333,69.1667 96.1667,68.8333 97.5,68.5C 102.663,69.6205 107.663,69.6205 112.5,68.5 Z M 380.5,133.5 C 416.675,131.033 450.009,139.533 480.5,159C 500.106,171.763 517.773,186.93 533.5,204.5C 507.161,236.017 474.161,257.517 434.5,269C 395.609,278.103 358.609,273.77 323.5,256C 298.09,242.419 275.423,225.252 255.5,204.5C 289.239,166.815 330.905,143.148 380.5,133.5 Z M 392.5,181.5 C 410.782,182.975 418.282,192.975 415,211.5C 411.074,220.639 404.074,225.305 394,225.5C 376.873,222.599 370.207,212.599 374,195.5C 377.762,187.562 383.928,182.895 392.5,181.5 Z M 256.5,345.5 C 285.804,387.655 314.97,429.988 344,472.5C 344.738,476.402 344.072,480.068 342,483.5C 331.141,502.4 322.808,522.4 317,543.5C 315.926,550.689 314.759,557.855 313.5,565C 313.763,566.946 314.763,567.612 316.5,567C 320.544,561.079 324.711,555.245 329,549.5C 328.987,567.192 328.154,584.859 326.5,602.5C 327,607.5 327.5,612.5 328,617.5C 332.776,621.601 336.776,626.268 340,631.5C 342.861,658.439 344.195,685.439 344,712.5C 343.126,721.484 342.459,730.484 342,739.5C 340.943,746.918 338.443,753.751 334.5,760C 324.5,764 314.5,768 304.5,772C 300.61,776.279 297.61,781.112 295.5,786.5C 294,782.167 292.5,777.834 291,773.5C 289.748,757.403 287.748,741.403 285,725.5C 281.997,715.484 278.997,705.484 276,695.5C 273.752,692.672 271.752,689.672 270,686.5C 268.457,679.87 266.123,673.537 263,667.5C 244.873,637.092 223.706,608.926 199.5,583C 195.656,580.578 191.99,577.911 188.5,575C 187.552,574.517 186.552,574.351 185.5,574.5C 191.655,588.436 198.488,602.102 206,615.5C 207.895,620.589 207.895,625.589 206,630.5C 200.811,627.827 195.311,626.661 189.5,627C 175.466,633.008 161.466,639.008 147.5,645C 145.765,645.651 144.098,645.485 142.5,644.5C 137.767,627.342 133.6,610.009 130,592.5C 129.055,569.784 129.722,547.118 132,524.5C 133.115,521.105 134.615,517.939 136.5,515C 142.431,513.529 148.431,513.196 154.5,514C 167.861,528.026 181.194,542.026 194.5,556C 196.167,556.667 197.833,556.667 199.5,556C 202.948,550.552 207.115,545.718 212,541.5C 218.902,524.791 225.402,507.958 231.5,491C 224.473,469.256 216.639,447.756 208,426.5C 207.333,422.833 207.333,419.167 208,415.5C 215.971,406.192 223.971,396.858 232,387.5C 234.73,381.309 237.063,374.976 239,368.5C 241.133,365.647 243.967,365.147 247.5,367C 249.543,368.708 251.21,370.708 252.5,373C 253.449,373.617 254.282,373.451 255,372.5C 256.106,363.533 256.606,354.533 256.5,345.5 Z M 467.5,438.5 C 468.222,438.918 468.722,439.584 469,440.5C 471.211,471.821 472.878,503.154 474,534.5C 472.928,539.383 471.261,544.05 469,548.5C 461.288,557.21 453.955,566.21 447,575.5C 438.652,603.895 430.152,632.229 421.5,660.5C 421.556,661.737 422.056,662.737 423,663.5C 425.167,662 427.333,660.5 429.5,659C 430.784,658.316 431.951,658.483 433,659.5C 433.667,663.5 433.667,667.5 433,671.5C 430.792,685.622 428.959,699.789 427.5,714C 429.314,726.757 432.314,739.257 436.5,751.5C 435.635,752.583 434.635,752.749 433.5,752C 420.412,746.637 407.246,741.471 394,736.5C 384.964,739.679 376.131,743.345 367.5,747.5C 367.167,747 366.833,746.5 366.5,746C 368.728,738.8 370.395,731.8 371.5,725C 369.764,713.05 368.097,701.05 366.5,689C 366.667,687.5 367.5,686.667 369,686.5C 370.879,688.013 373.046,688.679 375.5,688.5C 369.669,668.509 363.835,648.509 358,628.5C 353.723,621.621 348.723,615.288 343,609.5C 341.392,606.618 340.059,603.618 339,600.5C 339.136,573.454 340.47,546.454 343,519.5C 344.625,506.953 347.292,494.62 351,482.5C 364.833,502.833 378.667,523.167 392.5,543.5C 393.365,544.583 394.365,544.749 395.5,544C 419.289,508.707 443.289,473.541 467.5,438.5 Z M 390.5,756.5 C 392.857,756.337 395.19,756.503 397.5,757C 421.94,767.553 446.607,777.553 471.5,787C 483.358,813.055 494.691,839.389 505.5,866C 494.709,892.581 483.375,918.914 471.5,945C 445.747,955.696 419.914,966.196 394,976.5C 368.483,966.329 342.983,955.996 317.5,945.5C 316.139,943.972 314.972,942.305 314,940.5C 303.629,915.594 293.129,890.761 282.5,866C 293.813,839.876 304.98,813.709 316,787.5C 340.955,777.267 365.788,766.934 390.5,756.5 Z"/></g>
<g><path style="opacity:0.769" fill="#e6e6e6" d="M 679.5,68.5 C 490.627,68.9712 301.627,68.9712 112.5,68.5C 295.657,67.1762 484.657,67.1762 679.5,68.5 Z"/></g>
<g><path style="opacity:0.565" fill="#f9f9f9" d="M 170.5,74.5 C 172.308,74.4914 173.975,74.9914 175.5,76C 172.1,77.9227 168.766,77.9227 165.5,76C 167.382,75.8019 169.048,75.3019 170.5,74.5 Z"/></g>
<g><path style="opacity:0.259" fill="#fefffe" d="M 183.5,76.5 C 185.966,75.3659 188.633,75.1993 191.5,76C 188.794,77.2298 186.127,77.3964 183.5,76.5 Z"/></g>
<g><path style="opacity:0.349" fill="#f6f6f6" d="M 623.5,74.5 C 624.922,74.7086 626.255,75.2086 627.5,76C 624.537,77.8503 621.537,77.8503 618.5,76C 620.382,75.8019 622.048,75.3019 623.5,74.5 Z"/></g>
<g><path style="opacity:0.616" fill="#e6e6e6" d="M 641.5,74.5 C 643.103,74.3118 644.437,74.8118 645.5,76C 641.833,78 638.167,78 634.5,76C 637.036,75.8138 639.369,75.3138 641.5,74.5 Z"/></g>
<g><path style="opacity:0.121" fill="#f7f7f7" d="M 658.5,74.5 C 662.7,76.2609 662.367,77.2609 657.5,77.5C 655.611,77.5637 653.944,77.0637 652.5,76C 654.708,75.8091 656.708,75.3091 658.5,74.5 Z"/></g>
<g><path style="opacity:0.786" fill="#f9f9f9" d="M 259.5,94.5 C 260.376,94.3691 261.043,94.7025 261.5,95.5C 268.333,106.82 275.333,117.987 282.5,129C 281.975,129.692 281.308,130.192 280.5,130.5C 275.169,127.918 269.836,125.751 264.5,124C 266.469,128.9 268.635,133.733 271,138.5C 271.667,140.167 271.667,141.833 271,143.5C 263.707,133.233 257.207,122.567 251.5,111.5C 254.846,112.036 258.18,112.703 261.5,113.5C 262.167,113.167 262.833,112.833 263.5,112.5C 261.528,106.642 260.195,100.642 259.5,94.5 Z"/></g>
<g><path style="opacity:0.834" fill="#fbfbfb" d="M 220.5,104.5 C 232.741,114.567 244.575,125.234 256,136.5C 256.167,136.833 256.333,137.167 256.5,137.5C 254.833,137.833 253.167,138.167 251.5,138.5C 247.829,137.885 244.162,137.719 240.5,138C 246.212,145.923 252.045,153.756 258,161.5C 258.591,162.483 258.257,163.15 257,163.5C 243.387,152.891 230.053,141.891 217,130.5C 216.568,129.4 217.068,128.733 218.5,128.5C 222.72,127.894 226.72,126.727 230.5,125C 226.755,118.344 223.422,111.511 220.5,104.5 Z"/></g>
<g><path style="opacity:0.77" fill="#f8f8f8" d="M 531.5,96.5 C 532.376,96.3691 533.043,96.7025 533.5,97.5C 531.449,103.762 529.783,110.095 528.5,116.5C 532.264,116.091 535.93,116.091 539.5,116.5C 532.854,126.975 526.021,137.308 519,147.5C 518.333,146.167 518.333,144.833 519,143.5C 522.147,138.031 524.481,132.364 526,126.5C 521.1,128.469 516.267,130.635 511.5,133C 510.365,133.749 509.365,133.583 508.5,132.5C 516.193,120.482 523.86,108.482 531.5,96.5 Z"/></g>
<g><path style="opacity:0.096" fill="#fefffe" d="M 66.5,111.5 C 67.5983,112.601 67.765,113.934 67,115.5C 65.4894,114.436 65.3228,113.103 66.5,111.5 Z"/></g>
<g><path style="opacity:0.811" fill="#f7f7f7" d="M 294.5,107.5 C 295.496,107.414 296.329,107.748 297,108.5C 297.841,116.219 299.007,123.885 300.5,131.5C 300.444,132.737 299.944,133.737 299,134.5C 296.333,131.833 293.667,129.167 291,126.5C 290.941,131.348 290.274,136.015 289,140.5C 286.85,132.643 285.35,124.643 284.5,116.5C 287.049,116.387 289.382,117.054 291.5,118.5C 292.88,114.931 293.88,111.264 294.5,107.5 Z"/></g>
<g><path style="opacity:0.93" fill="#fcfcfc" d="M 387.5,114.5 C 430.916,114.223 469.916,127.057 504.5,153C 524.466,167.73 542.133,184.897 557.5,204.5C 525.17,247.656 482.837,275.823 430.5,289C 421.29,290.484 412.29,291.817 403.5,293C 407.601,313.016 412.268,332.849 417.5,352.5C 412.299,351.486 407.466,349.486 403,346.5C 400.611,354.605 398.944,362.938 398,371.5C 397.667,371.833 397.333,372.167 397,372.5C 392.806,355.507 389.306,338.341 386.5,321C 386.833,319.833 387.167,318.667 387.5,317.5C 391.851,321.686 396.351,325.686 401,329.5C 401.5,317.171 401.667,304.838 401.5,292.5C 369.131,292.991 338.798,285.491 310.5,270C 280.587,252.76 254.254,231.094 231.5,205C 260.981,166.538 298.647,139.205 344.5,123C 358.748,119.05 373.081,116.217 387.5,114.5 Z M 380.5,133.5 C 330.905,143.148 289.239,166.815 255.5,204.5C 275.423,225.252 298.09,242.419 323.5,256C 358.609,273.77 395.609,278.103 434.5,269C 474.161,257.517 507.161,236.017 533.5,204.5C 517.773,186.93 500.106,171.763 480.5,159C 450.009,139.533 416.675,131.033 380.5,133.5 Z M 392.5,181.5 C 383.928,182.895 377.762,187.562 374,195.5C 370.207,212.599 376.873,222.599 394,225.5C 404.074,225.305 411.074,220.639 415,211.5C 418.282,192.975 410.782,182.975 392.5,181.5 Z"/></g>
<g><path style="opacity:0.83" fill="#fafafa" d="M 568.5,109.5 C 570.225,109.843 570.725,110.843 570,112.5C 566.677,118.317 563.511,124.15 560.5,130C 564.465,131.126 568.465,132.126 572.5,133C 573.451,133.718 573.617,134.551 573,135.5C 559.069,145.595 545.569,156.262 532.5,167.5C 531.592,166.21 531.759,164.877 533,163.5C 538.833,156.333 544.667,149.167 550.5,142C 546.314,141.427 542.147,141.594 538,142.5C 536.272,142.546 534.772,142.046 533.5,141C 545.362,130.634 557.028,120.134 568.5,109.5 Z"/></g>
<g><path style="opacity:0.69" fill="#f4f4f4" d="M 495.5,109.5 C 497.297,113.329 498.797,117.329 500,121.5C 501.87,119.781 504.037,118.781 506.5,118.5C 505.325,126.566 503.825,134.566 502,142.5C 501.333,143.833 500.667,143.833 500,142.5C 499.907,138.159 499.907,133.826 500,129.5C 497.205,131.293 494.705,133.46 492.5,136C 491.275,136.563 490.275,136.23 489.5,135C 491.588,126.484 493.588,117.984 495.5,109.5 Z"/></g>
<g><path style="opacity:0.071" fill="#fefffe" d="M 66.5,130.5 C 67.525,130.897 67.6917,131.563 67,132.5C 66.5357,131.906 66.369,131.239 66.5,130.5 Z"/></g>
<g><path style="opacity:0.078" fill="#cacaca" d="M 709.5,141.5 C 711.87,144.226 712.037,147.226 710,150.5C 708.302,147.604 708.136,144.604 709.5,141.5 Z"/></g>
<g><path style="opacity:0.956" fill="#fdfdfd" d="M 389.5,148.5 C 422.621,149.635 442.621,166.301 449.5,198.5C 449.269,229.643 433.769,249.643 403,258.5C 367.763,260.022 346.763,243.355 340,208.5C 339.133,185.064 348.633,167.23 368.5,155C 375.389,152.09 382.389,149.923 389.5,148.5 Z M 392.5,181.5 C 383.928,182.895 377.762,187.562 374,195.5C 370.207,212.599 376.873,222.599 394,225.5C 404.074,225.305 411.074,220.639 415,211.5C 418.282,192.975 410.782,182.975 392.5,181.5 Z"/></g>
<g><path style="opacity:0.746" fill="#f5f5f5" d="M 220.5,147.5 C 230.614,153.063 240.281,159.397 249.5,166.5C 249,166.833 248.5,167.167 248,167.5C 242.794,165.598 237.627,163.598 232.5,161.5C 231.833,163.167 231.167,164.833 230.5,166.5C 220.136,161.318 209.802,156.151 199.5,151C 206.262,151.161 212.929,152.328 219.5,154.5C 220.167,154.333 220.833,154.167 221.5,154C 220.217,151.777 219.883,149.61 220.5,147.5 Z"/></g>
<g><path style="opacity:0.935" fill="#f3f3f3" d="M 567.5,151.5 C 568.756,151.461 569.756,151.961 570.5,153C 569.231,155.139 569.231,157.305 570.5,159.5C 576.416,157.521 582.416,155.854 588.5,154.5C 589.386,155.325 589.719,156.325 589.5,157.5C 579.207,161.046 569.207,165.38 559.5,170.5C 558.833,168.833 558.167,167.167 557.5,165.5C 552.373,167.598 547.206,169.598 542,171.5C 540.274,170.352 540.441,169.185 542.5,168C 551.281,163.03 559.614,157.53 567.5,151.5 Z"/></g>
<g><path style="opacity:0.076" fill="#bababa" d="M 709.5,158.5 C 711.857,161.333 712.024,164.333 710,167.5C 708.185,164.616 708.018,161.616 709.5,158.5 Z"/></g>
<g><path style="opacity:0.747" fill="#f7f7f7" d="M 211.5,173.5 C 218.515,174.469 225.515,175.636 232.5,177C 234.044,177.29 235.377,177.956 236.5,179C 232.571,180.029 228.571,180.863 224.5,181.5C 225.752,183.001 226.752,184.668 227.5,186.5C 226.758,187.287 225.925,187.953 225,188.5C 215.749,187.374 206.249,186.207 196.5,185C 196.043,184.586 195.709,184.086 195.5,183.5C 201.889,182.422 208.223,181.089 214.5,179.5C 212.962,177.757 211.962,175.757 211.5,173.5 Z"/></g>
<g><path style="opacity:0.475" fill="#b3b3b3" d="M 709.5,175.5 C 711.755,178.707 711.921,182.04 710,185.5C 708.23,182.311 708.063,178.978 709.5,175.5 Z"/></g>
<g><path style="opacity:0.779" fill="#f7f7f7" d="M 574.5,177.5 C 575.833,177.5 577.167,177.5 578.5,177.5C 577.587,179.835 576.253,182.001 574.5,184C 579.435,186.201 584.435,187.201 589.5,187C 590.5,187.333 591.5,187.667 592.5,188C 593.833,188.667 593.833,189.333 592.5,190C 582.189,191.165 571.856,191.998 561.5,192.5C 561.98,189.995 562.98,187.662 564.5,185.5C 560.771,184.098 557.104,183.098 553.5,182.5C 560.625,180.92 567.625,179.253 574.5,177.5 Z"/></g>
<g><path style="opacity:0.112" fill="#a9a9a9" d="M 709.5,195.5 C 710.613,196.946 710.78,198.613 710,200.5C 709.506,198.866 709.34,197.199 709.5,195.5 Z"/></g>
<g><path style="opacity:0.124" fill="#a8a8a8" d="M 709.5,212.5 C 710.613,213.946 710.78,215.613 710,217.5C 709.506,215.866 709.34,214.199 709.5,212.5 Z"/></g>
<g><path style="opacity:0.176" fill="#ababab" d="M 709.5,228.5 C 711.817,231.639 711.984,234.972 710,238.5C 708.23,235.311 708.063,231.978 709.5,228.5 Z"/></g>
<g><path style="opacity:0.12" fill="#9f9f9f" d="M 708.5,245.5 C 709.496,245.414 710.329,245.748 711,246.5C 711.89,249.706 711.557,252.706 710,255.5C 708.595,252.381 708.095,249.048 708.5,245.5 Z"/></g>
<g><path style="opacity:0.316" fill="#b0b0b0" d="M 709.5,263.5 C 711.87,266.226 712.037,269.226 710,272.5C 709.502,269.518 709.335,266.518 709.5,263.5 Z"/></g>
<g><path style="opacity:0.097" fill="#9f9f9f" d="M 709.5,281.5 C 710.629,283.628 710.796,285.961 710,288.5C 709.503,286.19 709.337,283.857 709.5,281.5 Z"/></g>
<g><path style="opacity:0.702" fill="#f8f8f8" d="M 445.5,292.5 C 447.484,292.383 449.15,293.05 450.5,294.5C 458.474,302.139 466.474,309.806 474.5,317.5C 473.635,318.583 472.635,318.749 471.5,318C 465.747,314.706 459.913,311.54 454,308.5C 453.667,310.5 453.333,312.5 453,314.5C 451.951,315.517 450.784,315.684 449.5,315C 443.87,308.035 437.87,301.368 431.5,295C 432,294.5 432.5,294 433,293.5C 436.702,296.032 440.535,298.365 444.5,300.5C 445.48,297.914 445.813,295.247 445.5,292.5 Z"/></g>
<g><path style="opacity:0.736" fill="#f7f7f7" d="M 343.5,292.5 C 344.75,292.577 345.583,293.244 346,294.5C 346.388,298.219 347.055,301.886 348,305.5C 351.357,301.644 354.524,297.644 357.5,293.5C 358.365,292.417 359.365,292.251 360.5,293C 355.77,300.961 351.437,309.127 347.5,317.5C 346.635,318.583 345.635,318.749 344.5,318C 343.33,315.815 342.164,313.649 341,311.5C 337.672,314.658 334.172,317.658 330.5,320.5C 329.417,319.635 329.251,318.635 330,317.5C 334.512,309.14 339.012,300.806 343.5,292.5 Z"/></g>
<g><path style="opacity:0.178" fill="#a4a4a4" d="M 709.5,298.5 C 710.629,300.628 710.796,302.961 710,305.5C 709.503,303.19 709.337,300.857 709.5,298.5 Z"/></g>
<g><path style="opacity:0.732" fill="#fafaf9" d="M 413.5,296.5 C 417.804,302.321 421.97,308.321 426,314.5C 426.549,310.383 428.216,309.716 431,312.5C 436.006,323.182 441.506,333.515 447.5,343.5C 447.192,344.308 446.692,344.975 446,345.5C 441.377,339.208 436.377,333.208 431,327.5C 429.581,329.336 428.414,331.336 427.5,333.5C 426.726,334.711 425.893,334.711 425,333.5C 421.734,323.037 418.068,312.704 414,302.5C 413.505,300.527 413.338,298.527 413.5,296.5 Z"/></g>
<g><path style="opacity:0.795" fill="#fafafa" d="M 376.5,303.5 C 377.156,304.622 377.489,305.955 377.5,307.5C 376.139,319.475 375.139,331.475 374.5,343.5C 373.448,343.649 372.448,343.483 371.5,343C 369.317,340.65 366.984,338.483 364.5,336.5C 361.278,341.461 358.611,346.795 356.5,352.5C 354.13,353.476 353.13,352.476 353.5,349.5C 354.594,335.743 356.26,322.077 358.5,308.5C 362.224,314.268 365.724,320.268 369,326.5C 371.352,318.75 373.852,311.084 376.5,303.5 Z"/></g>
<g><path style="opacity:0.263" fill="#adadad" d="M 709.5,316.5 C 710.629,318.628 710.796,320.961 710,323.5C 709.503,321.19 709.337,318.857 709.5,316.5 Z"/></g>
<g><path style="opacity:0.067" fill="#959695" d="M 709.5,391.5 C 710.833,392.167 710.833,392.167 709.5,391.5 Z"/></g>
<g><path style="opacity:0.301" fill="#aeaeae" d="M 709.5,403.5 C 710.629,405.628 710.796,407.961 710,410.5C 709.503,408.19 709.337,405.857 709.5,403.5 Z"/></g>
<g><path style="opacity:0.222" fill="#ababab" d="M 709.5,455.5 C 710.634,457.966 710.801,460.633 710,463.5C 709.503,460.854 709.336,458.187 709.5,455.5 Z"/></g>
<g><path style="opacity:0.306" fill="#b6b6b6" d="M 709.5,473.5 C 710.634,475.966 710.801,478.633 710,481.5C 709.503,478.854 709.336,476.187 709.5,473.5 Z"/></g>
<g><path style="opacity:0.329" fill="#b8b8b8" d="M 709.5,770.5 C 711.576,772.67 711.743,775.003 710,777.5C 709.503,775.19 709.337,772.857 709.5,770.5 Z"/></g>
<g><path style="opacity:0.312" fill="#b2b2b2" d="M 709.5,786.5 C 710.638,789.304 710.805,792.304 710,795.5C 709.502,792.518 709.335,789.518 709.5,786.5 Z"/></g>
<g><path style="opacity:0.946" fill="#fefefd" d="M 327.5,816.5 C 336.751,816.182 345.917,816.515 355,817.5C 355.333,844.167 355.667,870.833 356,897.5C 368.763,884.569 381.596,871.903 394.5,859.5C 395.167,859.667 395.833,859.833 396.5,860C 409,872.5 421.5,885 434,897.5C 433.575,871.174 433.575,844.84 434,818.5C 434.5,818 435,817.5 435.5,817C 444.5,816.333 453.5,816.333 462.5,817C 463.663,854.429 463.829,891.929 463,929.5C 452.183,930.918 441.35,930.751 430.5,929C 427.339,927.587 424.339,925.92 421.5,924C 412.955,915.155 404.121,906.655 395,898.5C 386.53,905.969 378.363,913.802 370.5,922C 366.97,924.596 363.303,926.929 359.5,929C 348.893,930.569 338.226,930.903 327.5,930C 326.17,892.167 326.17,854.333 327.5,816.5 Z"/></g>
<g><path style="opacity:0.382" fill="#b4b4b4" d="M 709.5,821.5 C 711.186,824.423 711.352,827.423 710,830.5C 709.5,829 709,827.5 708.5,826C 709.148,824.56 709.481,823.06 709.5,821.5 Z"/></g>
<g><path style="opacity:0.454" fill="#a7a7a7" d="M 709.5,837.5 C 710.972,839.117 711.639,841.117 711.5,843.5C 710.23,850.095 709.23,849.929 708.5,843C 708.581,841.076 708.914,839.243 709.5,837.5 Z"/></g>
<g><path style="opacity:0.483" fill="#aaaaaa" d="M 709.5,855.5 C 711.958,858.939 712.125,862.606 710,866.5C 708.181,862.941 708.014,859.274 709.5,855.5 Z"/></g>
<g><path style="opacity:0.082" fill="#b2b2b2" d="M 66.5,862.5 C 67.7733,863.077 67.7733,863.743 66.5,864.5C 65.537,864.03 65.537,863.363 66.5,862.5 Z"/></g>
<g><path style="opacity:0.426" fill="#adadad" d="M 709.5,873.5 C 711.976,876.287 711.976,879.287 709.5,882.5C 708.259,879.463 708.259,876.463 709.5,873.5 Z"/></g>
<g><path style="opacity:0.141" fill="#afafaf" d="M 65.5,891.5 C 66.7479,892.334 67.4146,893.667 67.5,895.5C 67.3333,896.833 67.1667,898.167 67,899.5C 65.9207,896.937 65.4207,894.271 65.5,891.5 Z"/></g>
<g><path style="opacity:0.39" fill="#b6b6b6" d="M 709.5,891.5 C 710.634,893.966 710.801,896.633 710,899.5C 709.503,896.854 709.336,894.187 709.5,891.5 Z"/></g>
<g><path style="opacity:0.675" fill="#f9f9f9" d="M 167.5,1053.5 C 173.176,1053.33 178.843,1053.5 184.5,1054C 191.004,1058.32 191.67,1063.32 186.5,1069C 191.459,1073.98 191.793,1079.32 187.5,1085C 180.918,1086.75 174.251,1086.92 167.5,1085.5C 166.19,1074.83 166.19,1064.17 167.5,1053.5 Z M 173.5,1057.5 C 176.271,1057.42 178.937,1057.92 181.5,1059C 184.167,1061.33 184.167,1063.67 181.5,1066C 178.518,1066.5 175.518,1066.66 172.5,1066.5C 172.706,1063.56 173.039,1060.56 173.5,1057.5 Z M 173.5,1071.5 C 176.91,1071.46 180.243,1071.96 183.5,1073C 186.153,1076.39 185.486,1079.06 181.5,1081C 178.5,1081.67 175.5,1081.67 172.5,1081C 172.616,1077.74 172.95,1074.57 173.5,1071.5 Z"/></g>
<g><path style="opacity:0.677" fill="#fafafa" d="M 501.5,1053.5 C 503.144,1053.29 504.644,1053.62 506,1054.5C 506.497,1057.15 506.664,1059.81 506.5,1062.5C 518.815,1060.06 524.982,1065.06 525,1077.5C 523.539,1081.26 521.039,1084.09 517.5,1086C 511.843,1086.5 506.176,1086.67 500.5,1086.5C 500.19,1075.42 500.523,1064.42 501.5,1053.5 Z M 510.5,1066.5 C 517.772,1067.36 520.272,1071.36 518,1078.5C 514.603,1081.98 510.936,1082.31 507,1079.5C 506.333,1075.83 506.333,1072.17 507,1068.5C 508.302,1067.92 509.469,1067.25 510.5,1066.5 Z"/></g>
<g><path style="opacity:0.633" fill="#f6f6f6" d="M 597.5,1053.5 C 600.85,1053.33 604.183,1053.5 607.5,1054C 608.337,1055.01 608.67,1056.18 608.5,1057.5C 604.606,1057.19 601.273,1058.35 598.5,1061C 601.167,1061.33 603.833,1061.67 606.5,1062C 608.592,1062.95 608.925,1064.29 607.5,1066C 604.447,1066.18 601.447,1066.68 598.5,1067.5C 598.316,1072.03 598.649,1076.7 599.5,1081.5C 600.736,1082.25 602.07,1082.58 603.5,1082.5C 603.67,1083.82 603.337,1084.99 602.5,1086C 598.961,1086.28 595.461,1086.78 592,1087.5C 586.037,1085.08 586.203,1083.08 592.5,1081.5C 592.5,1076.5 592.5,1071.5 592.5,1066.5C 590.052,1066.99 588.385,1066.16 587.5,1064C 588.954,1062.29 590.788,1061.12 593,1060.5C 593.904,1057.77 595.404,1055.43 597.5,1053.5 Z"/></g>
<g><path style="opacity:0.786" fill="#f6f6f6" d="M 92.5,1053.5 C 97.6673,1052.49 99.334,1054.33 97.5,1059C 95.5273,1059.5 93.5273,1059.66 91.5,1059.5C 91.3253,1057.38 91.6586,1055.38 92.5,1053.5 Z"/></g>
<g><path style="opacity:0.666" fill="#f8f8f8" d="M 278.5,1053.5 C 280.167,1053.5 281.833,1053.5 283.5,1053.5C 283.5,1056.83 283.5,1060.17 283.5,1063.5C 286.156,1062.84 288.822,1062.18 291.5,1061.5C 297.886,1061.72 301.052,1065.05 301,1071.5C 301.667,1076.17 301.667,1080.83 301,1085.5C 299.301,1086.41 297.467,1086.74 295.5,1086.5C 295.666,1080.82 295.499,1075.16 295,1069.5C 291.511,1065.63 288.178,1065.96 285,1070.5C 283.729,1075.75 283.229,1081.09 283.5,1086.5C 281.533,1086.74 279.699,1086.41 278,1085.5C 277.213,1074.79 277.38,1064.12 278.5,1053.5 Z"/></g>
<g><path style="opacity:0.638" fill="#f9f9f9" d="M 397.5,1061.5 C 402.472,1061.98 407.305,1062.31 412,1062.5C 412.789,1066.09 412.622,1069.59 411.5,1073C 410.5,1073.67 409.5,1073.67 408.5,1073C 404.917,1065.79 400.417,1064.95 395,1070.5C 393.673,1078.17 396.839,1081.67 404.5,1081C 406.706,1078.65 409.206,1078.15 412,1079.5C 412.667,1080.5 412.667,1081.5 412,1082.5C 405.939,1087.26 399.439,1087.76 392.5,1084C 387.536,1077.99 387.202,1071.66 391.5,1065C 393.432,1063.54 395.432,1062.37 397.5,1061.5 Z"/></g>
<g><path style="opacity:0.633" fill="#fafafa" d="M 425.5,1061.5 C 431.624,1060.7 436.458,1062.7 440,1067.5C 440.5,1073.82 440.666,1080.16 440.5,1086.5C 433.881,1086.11 427.214,1085.95 420.5,1086C 416.708,1083.95 415.542,1080.78 417,1076.5C 417.308,1075.69 417.808,1075.03 418.5,1074.5C 423.582,1072.26 428.915,1070.92 434.5,1070.5C 433.187,1068.17 431.187,1066.84 428.5,1066.5C 425.42,1067.48 422.42,1068.31 419.5,1069C 418.446,1067.61 418.28,1066.11 419,1064.5C 421.166,1063.27 423.333,1062.27 425.5,1061.5 Z M 427.5,1076.5 C 429.833,1076.5 432.167,1076.5 434.5,1076.5C 434.5,1077.5 434.5,1078.5 434.5,1079.5C 431.071,1081.25 427.405,1081.75 423.5,1081C 422.549,1080.28 422.383,1079.45 423,1078.5C 424.622,1077.9 426.122,1077.23 427.5,1076.5 Z"/></g>
<g><path style="opacity:0.598" fill="#f9f9f9" d="M 445.5,1061.5 C 447.827,1061.25 449.827,1061.91 451.5,1063.5C 461.556,1059.11 467.223,1062.28 468.5,1073C 468.019,1077.47 467.686,1081.97 467.5,1086.5C 465.833,1086.5 464.167,1086.5 462.5,1086.5C 462.861,1080.41 462.361,1074.41 461,1068.5C 456.514,1066.05 453.181,1067.39 451,1072.5C 450.828,1077.2 450.328,1081.87 449.5,1086.5C 448.167,1087.83 446.833,1087.83 445.5,1086.5C 444.199,1078.11 444.199,1069.77 445.5,1061.5 Z"/></g>
<g><path style="opacity:0.646" fill="#f9f9f9" d="M 619.5,1061.5 C 632.895,1060.39 638.395,1066.39 636,1079.5C 634.5,1082.33 632.333,1084.5 629.5,1086C 615.692,1088.85 609.526,1083.35 611,1069.5C 613.098,1065.9 615.932,1063.23 619.5,1061.5 Z M 621.5,1066.5 C 629.554,1066.97 632.388,1070.97 630,1078.5C 625.667,1082.5 621.333,1082.5 617,1078.5C 615.307,1073.08 616.807,1069.08 621.5,1066.5 Z"/></g>
<g><path style="opacity:0.655" fill="#f7f7f7" d="M 641.5,1061.5 C 643.39,1061.3 644.89,1061.96 646,1063.5C 645.897,1067.91 645.897,1072.58 646,1077.5C 647.724,1082.02 650.558,1082.68 654.5,1079.5C 655.584,1078.33 656.417,1077 657,1075.5C 657.333,1071.17 657.667,1066.83 658,1062.5C 659.667,1061.17 661.333,1061.17 663,1062.5C 663.814,1070.41 663.647,1078.25 662.5,1086C 660.251,1086.86 658.418,1086.36 657,1084.5C 644.607,1089.89 639.107,1085.89 640.5,1072.5C 640.535,1068.75 640.869,1065.08 641.5,1061.5 Z"/></g>
<g><path style="opacity:0.733" fill="#fafafa" d="M 675.5,1061.5 C 680.472,1061.98 685.305,1062.31 690,1062.5C 690.667,1071.83 690.667,1081.17 690,1090.5C 688.833,1093 687,1094.83 684.5,1096C 680.5,1096.67 676.5,1096.67 672.5,1096C 670.154,1094.99 668.487,1093.32 667.5,1091C 667.667,1089.5 668.5,1088.67 670,1088.5C 672.693,1089.93 675.527,1090.93 678.5,1091.5C 683.002,1091.71 684.835,1089.71 684,1085.5C 670.307,1088.81 664.64,1083.48 667,1069.5C 668.773,1065.56 671.606,1062.89 675.5,1061.5 Z M 677.5,1066.5 C 685.112,1067.05 687.612,1071.05 685,1078.5C 678.314,1083.55 673.814,1082.05 671.5,1074C 672.236,1070.3 674.236,1067.8 677.5,1066.5 Z"/></g>
<g><path style="opacity:0.677" fill="#f6f6f6" d="M 696.5,1053.5 C 698.144,1053.29 699.644,1053.62 701,1054.5C 701.179,1057.55 701.679,1060.55 702.5,1063.5C 707.449,1060.55 712.116,1060.88 716.5,1064.5C 718.106,1071.01 719.106,1077.35 719.5,1083.5C 718.032,1086.42 715.865,1087.09 713,1085.5C 712.667,1079.83 712.333,1074.17 712,1068.5C 708.729,1065.8 705.729,1066.14 703,1069.5C 701.826,1074.75 701.159,1080.08 701,1085.5C 699.301,1086.41 697.467,1086.74 695.5,1086.5C 695.19,1075.42 695.523,1064.42 696.5,1053.5 Z"/></g>
<g><path style="opacity:0.644" fill="#f7f7f7" d="M 728.5,1053.5 C 730.144,1053.29 731.644,1053.62 733,1054.5C 733.497,1056.81 733.663,1059.14 733.5,1061.5C 736.187,1061.34 738.854,1061.5 741.5,1062C 743.394,1063.08 743.727,1064.41 742.5,1066C 739.518,1066.5 736.518,1066.66 733.5,1066.5C 733.2,1071.1 733.533,1075.6 734.5,1080C 736.044,1081.19 737.711,1081.52 739.5,1081C 741.323,1079.34 742.99,1077.51 744.5,1075.5C 746.046,1076.21 747.046,1077.38 747.5,1079C 746.533,1084.65 743.2,1087.15 737.5,1086.5C 734.139,1086.89 731.306,1085.89 729,1083.5C 727.649,1077.93 727.149,1072.26 727.5,1066.5C 725.052,1066.99 723.385,1066.16 722.5,1064C 723.619,1062.12 725.286,1061.29 727.5,1061.5C 727.279,1058.72 727.612,1056.05 728.5,1053.5 Z"/></g>
<g><path style="opacity:0.967" fill="#f9f9f9" d="M 313.5,1061.5 C 323.088,1060.1 328.755,1064.1 330.5,1073.5C 330.392,1074.44 330.059,1075.28 329.5,1076C 323.167,1076.33 316.833,1076.67 310.5,1077C 312.263,1079.77 314.763,1081.27 318,1081.5C 321.341,1080.09 324.841,1079.09 328.5,1078.5C 328.673,1082.17 327.007,1084.67 323.5,1086C 308.472,1088.64 302.639,1082.47 306,1067.5C 308.134,1064.85 310.634,1062.85 313.5,1061.5 Z M 316.5,1066.5 C 319.877,1066.69 322.544,1068.19 324.5,1071C 319.833,1071.67 315.167,1071.67 310.5,1071C 312.141,1068.84 314.141,1067.34 316.5,1066.5 Z"/></g>
<g><path style="opacity:0.882" fill="#f8f8f8" d="M 229.5,1061.5 C 243.01,1060.5 248.51,1066.5 246,1079.5C 244.833,1082.67 242.667,1084.83 239.5,1086C 224.388,1088.56 218.554,1082.39 222,1067.5C 224.134,1064.85 226.634,1062.85 229.5,1061.5 Z M 231.5,1066.5 C 237.223,1066.34 240.557,1069.01 241.5,1074.5C 238.288,1082.62 233.455,1083.62 227,1077.5C 225.776,1072.63 227.276,1068.96 231.5,1066.5 Z"/></g>
<g><path style="opacity:0.571" fill="#f4f4f4" d="M 88.5,1061.5 C 91.4475,1061.22 94.2809,1061.56 97,1062.5C 97.4995,1068.82 97.6662,1075.16 97.5,1081.5C 100.061,1081.45 102.061,1082.45 103.5,1084.5C 103.291,1085.09 102.957,1085.59 102.5,1086C 97.2487,1086.8 92.082,1086.64 87,1085.5C 86.7428,1082.51 88.2428,1081.17 91.5,1081.5C 91.5,1076.5 91.5,1071.5 91.5,1066.5C 88.9783,1066.87 86.9783,1066.04 85.5,1064C 86.5707,1063.15 87.5707,1062.31 88.5,1061.5 Z"/></g>
<g><path style="opacity:0.88" fill="#f7f7f7" d="M 195.5,1061.5 C 199.054,1061.15 202.388,1061.82 205.5,1063.5C 208.962,1061.61 212.628,1061.11 216.5,1062C 218.658,1063.31 218.991,1064.98 217.5,1067C 207.255,1066.09 202.922,1070.92 204.5,1081.5C 208.343,1081.19 209.676,1082.69 208.5,1086C 204.961,1086.28 201.461,1086.78 198,1087.5C 196.049,1087.11 194.549,1086.11 193.5,1084.5C 195.69,1082.9 197.69,1081.07 199.5,1079C 199.342,1075.28 199.175,1071.45 199,1067.5C 197.601,1066.77 196.101,1066.27 194.5,1066C 193.257,1064.18 193.59,1062.68 195.5,1061.5 Z"/></g>
<g><path style="opacity:0.861" fill="#f6f6f6" d="M 334.5,1061.5 C 338.131,1061.03 341.465,1061.7 344.5,1063.5C 348.387,1061.47 352.387,1061.13 356.5,1062.5C 357.747,1064.01 357.747,1065.51 356.5,1067C 345.661,1066.33 341.661,1071.16 344.5,1081.5C 345.736,1082.25 347.07,1082.58 348.5,1082.5C 348.5,1083.83 348.5,1085.17 348.5,1086.5C 344.124,1086.64 339.791,1086.8 335.5,1087C 333.82,1086.65 332.82,1085.65 332.5,1084C 333.619,1082.12 335.286,1081.29 337.5,1081.5C 337.5,1076.5 337.5,1071.5 337.5,1066.5C 332.503,1066.78 331.503,1065.11 334.5,1061.5 Z"/></g>
<g><path style="opacity:0.562" fill="#f8f8f8" d="M 536.5,1061.5 C 547.646,1060.49 552.98,1065.33 552.5,1076C 546.141,1076.17 539.807,1076.67 533.5,1077.5C 534.791,1080.3 536.958,1081.63 540,1081.5C 543.331,1079.92 546.831,1079.08 550.5,1079C 551.396,1082.82 549.729,1085.15 545.5,1086C 532.188,1088.35 526.355,1082.85 528,1069.5C 529.445,1065.22 532.278,1062.55 536.5,1061.5 Z M 538.5,1066.5 C 542.139,1066.42 544.806,1067.92 546.5,1071C 542.129,1071.83 537.795,1071.66 533.5,1070.5C 534.707,1068.46 536.374,1067.13 538.5,1066.5 Z"/></g>
<g><path style="opacity:0.768" fill="#f6f6f6" d="M 55.5,1053.5 C 61.9522,1053.08 68.2855,1053.58 74.5,1055C 79.4867,1059.43 79.8201,1064.27 75.5,1069.5C 79.7075,1073.09 80.5408,1077.43 78,1082.5C 76.786,1084.05 75.286,1085.22 73.5,1086C 67.5092,1086.5 61.5092,1086.67 55.5,1086.5C 55.5,1075.5 55.5,1064.5 55.5,1053.5 Z M 61.5,1071.5 C 64.9099,1071.46 68.2432,1071.96 71.5,1073C 74.2652,1075.97 73.9318,1078.63 70.5,1081C 67.5184,1081.5 64.5184,1081.66 61.5,1081.5C 61.5,1078.17 61.5,1074.83 61.5,1071.5 Z M 62.5,1057.5 C 64.9267,1057.52 67.26,1058.02 69.5,1059C 73.5,1061.33 73.5,1063.67 69.5,1066C 66.854,1066.5 64.1873,1066.66 61.5,1066.5C 61.2641,1063.39 61.5975,1060.39 62.5,1057.5 Z"/></g>
<g><path style="opacity:0.856" fill="#f8f8f8" d="M 255.5,1053.5 C 260.407,1053.53 261.74,1055.87 259.5,1060.5C 262.447,1061.32 265.447,1061.82 268.5,1062C 270.335,1062.93 270.668,1064.09 269.5,1065.5C 266.572,1066.48 263.572,1066.82 260.5,1066.5C 260.334,1070.85 260.501,1075.18 261,1079.5C 262.466,1081.32 264.299,1081.82 266.5,1081C 268.054,1079.11 269.888,1077.61 272,1076.5C 273.5,1076.67 274.333,1077.5 274.5,1079C 271.894,1086.13 266.894,1088.46 259.5,1086C 258.069,1085.53 256.903,1084.7 256,1083.5C 254.596,1077.96 254.096,1072.29 254.5,1066.5C 252.833,1066.5 251.167,1066.5 249.5,1066.5C 249.162,1062.85 250.828,1061.18 254.5,1061.5C 254.279,1058.72 254.612,1056.05 255.5,1053.5 Z"/></g>
<g><path style="opacity:0.82" fill="#f5f5f5" d="M 119.5,1061.5 C 124.426,1062.3 129.26,1062.63 134,1062.5C 134.667,1071.17 134.667,1079.83 134,1088.5C 132.423,1093.71 128.923,1096.71 123.5,1097.5C 118.368,1097.56 114.368,1095.56 111.5,1091.5C 111.434,1089.73 112.268,1088.73 114,1088.5C 118.789,1092.34 123.456,1092.34 128,1088.5C 128.667,1087.5 128.667,1086.5 128,1085.5C 112.247,1088.08 106.913,1081.74 112,1066.5C 114.17,1064.18 116.67,1062.51 119.5,1061.5 Z M 120.5,1066.5 C 123.049,1066.39 125.382,1067.05 127.5,1068.5C 128.659,1072.12 128.825,1075.79 128,1079.5C 123.312,1082.61 119.312,1081.94 116,1077.5C 115.083,1072.73 116.583,1069.07 120.5,1066.5 Z"/></g>
<g><path style="opacity:0.65" fill="#f6f6f6" d="M 92.5,1122.5 C 97.8946,1121.55 99.5613,1123.55 97.5,1128.5C 91.7402,1130.21 90.0736,1128.21 92.5,1122.5 Z"/></g>
<g><path style="opacity:0.714" fill="#f7f7f7" d="M 259.5,1122.5 C 265.555,1121.94 266.888,1124.11 263.5,1129C 258.57,1129.43 257.237,1127.26 259.5,1122.5 Z"/></g>
<g><path style="opacity:0.64" fill="#f9f9f9" d="M 112.5,1130.5 C 114.366,1131.01 116.2,1131.68 118,1132.5C 122.911,1129.58 127.577,1129.92 132,1133.5C 132.862,1135.09 133.529,1136.75 134,1138.5C 134.499,1144.16 134.666,1149.82 134.5,1155.5C 132.5,1155.5 130.5,1155.5 128.5,1155.5C 128.666,1149.82 128.499,1144.16 128,1138.5C 124.083,1134.9 120.75,1135.56 118,1140.5C 117.667,1145.17 117.333,1149.83 117,1154.5C 111.959,1156.36 109.792,1154.52 110.5,1149C 110.991,1142.76 111.658,1136.59 112.5,1130.5 Z"/></g>
<g><path style="opacity:0.676" fill="#fafafa" d="M 204.5,1130.5 C 208.519,1131.65 212.519,1131.82 216.5,1131C 217.46,1134.73 217.793,1138.56 217.5,1142.5C 215.833,1142.5 214.167,1142.5 212.5,1142.5C 210.507,1135.58 206.673,1134.25 201,1138.5C 197.675,1147.68 200.842,1151.51 210.5,1150C 212.212,1148.25 214.212,1147.58 216.5,1148C 217.517,1149.05 217.684,1150.22 217,1151.5C 215.833,1152.67 214.667,1153.83 213.5,1155C 199.733,1158.55 193.233,1153.38 194,1139.5C 195.884,1134.44 199.384,1131.44 204.5,1130.5 Z"/></g>
<g><path style="opacity:0.57" fill="#f9f9f9" d="M 225.5,1130.5 C 228.313,1130.55 230.979,1131.21 233.5,1132.5C 238.168,1129.76 242.501,1130.1 246.5,1133.5C 245.032,1136.42 242.865,1137.09 240,1135.5C 233.134,1138.24 230.801,1143.24 233,1150.5C 235.179,1151.12 237.012,1152.28 238.5,1154C 238.167,1154.33 237.833,1154.67 237.5,1155C 232.177,1155.5 226.844,1155.67 221.5,1155.5C 221.406,1152.46 222.906,1150.79 226,1150.5C 226.499,1145.51 226.666,1140.51 226.5,1135.5C 223.05,1136.24 221.384,1134.91 221.5,1131.5C 223.099,1131.77 224.432,1131.43 225.5,1130.5 Z"/></g>
<g><path style="opacity:0.673" fill="#f9f9f9" d="M 279.5,1130.5 C 285.562,1131 291.562,1131.84 297.5,1133C 304.041,1140.02 304.041,1147.02 297.5,1154C 292.964,1155.38 288.297,1155.88 283.5,1155.5C 283.5,1158.5 283.5,1161.5 283.5,1164.5C 281.533,1164.74 279.699,1164.41 278,1163.5C 277.333,1153.5 277.333,1143.5 278,1133.5C 278.513,1132.47 279.013,1131.47 279.5,1130.5 Z M 288.5,1135.5 C 294.958,1136.41 297.458,1140.07 296,1146.5C 293.487,1150.21 289.987,1151.38 285.5,1150C 285,1149.5 284.5,1149 284,1148.5C 283.333,1145.17 283.333,1141.83 284,1138.5C 285.409,1137.22 286.909,1136.22 288.5,1135.5 Z"/></g>
<g><path style="opacity:0.801" fill="#f9f9f9" d="M 89.5,1130.5 C 92.1194,1130.23 94.6194,1130.56 97,1131.5C 97.4996,1138.16 97.6663,1144.83 97.5,1151.5C 99.288,1151.21 100.955,1151.55 102.5,1152.5C 103.641,1153.43 103.641,1154.26 102.5,1155C 97.1771,1155.5 91.8437,1155.67 86.5,1155.5C 86.3838,1152.09 88.0504,1150.76 91.5,1151.5C 91.2,1146.9 91.5333,1142.4 92.5,1138C 91.0881,1136.21 89.2548,1135.04 87,1134.5C 86.5172,1133.55 86.3505,1132.55 86.5,1131.5C 87.791,1131.74 88.791,1131.4 89.5,1130.5 Z"/></g>
<g><path style="opacity:0.963" fill="#f7f7f7" d="M 256.5,1130.5 C 259.119,1130.23 261.619,1130.56 264,1131.5C 264.333,1137.83 264.667,1144.17 265,1150.5C 266.987,1151.22 268.821,1152.22 270.5,1153.5C 270.291,1154.09 269.957,1154.59 269.5,1155C 264.177,1155.5 258.844,1155.67 253.5,1155.5C 253.406,1152.46 254.906,1150.79 258,1150.5C 258.667,1145.83 258.667,1141.17 258,1136.5C 254.906,1136.21 253.406,1134.54 253.5,1131.5C 254.791,1131.74 255.791,1131.4 256.5,1130.5 Z"/></g>
<g><path style="opacity:0.97" fill="#f9f9f9" d="M 315.5,1130.5 C 325.508,1130.51 330.508,1135.51 330.5,1145.5C 324.998,1146.75 319.498,1146.75 314,1145.5C 312.775,1145.86 311.609,1146.36 310.5,1147C 312.189,1149.51 314.522,1151.01 317.5,1151.5C 320.836,1149.98 324.169,1148.82 327.5,1148C 328.517,1149.05 328.684,1150.22 328,1151.5C 326.833,1152.67 325.667,1153.83 324.5,1155C 309.452,1158.28 303.285,1152.45 306,1137.5C 308.086,1133.55 311.253,1131.22 315.5,1130.5 Z M 317.5,1135.5 C 319.583,1136.03 321.417,1137.03 323,1138.5C 323.617,1139.45 323.451,1140.28 322.5,1141C 318.5,1141.67 314.5,1141.67 310.5,1141C 311.881,1137.77 314.214,1135.94 317.5,1135.5 Z"/></g>
<g><path style="opacity:0.637" fill="#f8f8f8" d="M 53.5,1122.5 C 55.7224,1122.18 57.5557,1122.84 59,1124.5C 59.6765,1130.23 60.6765,1135.89 62,1141.5C 62.7943,1138.53 63.461,1135.53 64,1132.5C 66,1131.17 68,1131.17 70,1132.5C 70.3457,1135.58 71.0124,1138.58 72,1141.5C 72.8921,1135.81 73.8921,1130.15 75,1124.5C 76.3957,1122.47 78.0624,1122.14 80,1123.5C 79.2656,1134.24 77.7656,1144.91 75.5,1155.5C 73.1667,1155.5 70.8333,1155.5 68.5,1155.5C 67.8439,1145.01 66.5106,1144.84 64.5,1155C 62.2305,1155.76 60.0639,1155.59 58,1154.5C 56.3972,1144.44 54.5639,1134.44 52.5,1124.5C 52.8627,1123.82 53.1961,1123.15 53.5,1122.5 Z"/></g>
<g><path style="opacity:0.669" fill="#fbfbfb" d="M 171.5,1131.5 C 177.196,1131.03 182.696,1131.69 188,1133.5C 188.884,1135.64 188.384,1137.31 186.5,1138.5C 183.752,1137.19 180.919,1136.19 178,1135.5C 175.824,1135.99 173.991,1136.99 172.5,1138.5C 178.123,1140.19 183.623,1142.19 189,1144.5C 191.477,1148.78 190.644,1152.28 186.5,1155C 181.167,1155.67 175.833,1155.67 170.5,1155C 168.919,1154.29 167.419,1153.46 166,1152.5C 165.085,1150.08 165.918,1148.75 168.5,1148.5C 171.839,1149.5 175.172,1150.5 178.5,1151.5C 180.887,1151.09 182.887,1150.09 184.5,1148.5C 180.411,1146.7 176.077,1145.53 171.5,1145C 164.888,1140.5 164.888,1136 171.5,1131.5 Z"/></g>
<g><path style="opacity:0.837" fill="#f9f9f9" d="M 152.5,1122.5 C 156.302,1121.88 159.635,1122.71 162.5,1125C 162.333,1135 162.166,1144.84 162,1154.5C 155.916,1155.64 149.749,1155.81 143.5,1155C 137.048,1149.51 135.881,1143.01 140,1135.5C 141.214,1133.95 142.714,1132.78 144.5,1132C 148.486,1131.5 152.486,1131.33 156.5,1131.5C 156.5,1130.17 156.5,1128.83 156.5,1127.5C 152.065,1128.08 150.732,1126.41 152.5,1122.5 Z M 149.5,1135.5 C 154.945,1135.78 157.279,1138.61 156.5,1144C 156.501,1150.1 153.501,1152.1 147.5,1150C 143.876,1147.84 142.709,1144.67 144,1140.5C 145.107,1137.89 146.94,1136.22 149.5,1135.5 Z"/></g>
</svg>
